<?xml version="1.0" encoding="UTF-8"?>
<svg id="Layer_1" xmlns="http://www.w3.org/2000/svg" version="1.1" viewBox="0 0 1024 1024">
  <!-- Generator: Adobe Illustrator 29.7.1, SVG Export Plug-In . SVG Version: 2.1.1 Build 8)  -->
  <defs>
    <style>
      .st0 {
        fill: #9a7c4a;
      }

      .st1 {
        fill: #221c14;
      }

      .st2 {
        fill: #070707;
      }

      .st3 {
        fill: #856f52;
      }

      .st4 {
        fill: #201d14;
      }

      .st5 {
        fill: #40352a;
      }

      .st6 {
        fill: #826e50;
      }

      .st7 {
        fill: #645036;
      }

      .st8 {
        fill: #7e6a47;
      }

      .st9 {
        fill: #edce8c;
      }

      .st10 {
        fill: #f1ce8a;
      }

      .st11 {
        fill: #6c5b41;
      }

      .st12 {
        fill: #edcb89;
      }

      .st13 {
        fill: #faefba;
      }

      .st14 {
        fill: #121113;
      }

      .st15 {
        fill: #75613b;
      }

      .st16 {
        fill: #736248;
      }

      .st17 {
        fill: #5a4528;
      }

      .st18 {
        fill: #d0b47b;
      }

      .st19 {
        fill: #aa9476;
      }

      .st20 {
        fill: #b89d69;
      }

      .st21 {
        fill: #776b5c;
      }

      .st22 {
        fill: #7a684b;
      }

      .st23 {
        fill: #bb9d69;
      }

      .st24 {
        fill: #efd291;
      }

      .st25 {
        fill: #5e492e;
      }

      .st26 {
        fill: #48361e;
      }

      .st27 {
        fill: #e6c788;
      }

      .st28 {
        fill: #7b674a;
      }

      .st29 {
        fill: #76644e;
      }

      .st30 {
        fill: #5d421d;
      }

      .st31 {
        fill: #ac9058;
      }

      .st32 {
        fill: #a5885d;
      }

      .st33 {
        fill: #eecc8a;
      }

      .st34 {
        fill: #f1cd88;
      }

      .st35 {
        fill: #cba677;
      }

      .st36 {
        fill: #9e814a;
      }

      .st37 {
        fill: #85714f;
      }

      .st38 {
        fill: #675334;
      }

      .st39 {
        fill: #4a4031;
      }

      .st40 {
        fill: #bea06d;
      }

      .st41 {
        fill: #836d42;
      }

      .st42 {
        fill: #4d402f;
      }

      .st43 {
        fill: #705d3f;
      }

      .st44 {
        fill: #eecd89;
      }

      .st45 {
        fill: #504026;
      }

      .st46 {
        fill: #1d1a17;
      }

      .st47 {
        fill: #ae9569;
      }

      .st48 {
        fill: #82673f;
      }

      .st49 {
        fill: #806945;
      }

      .st50 {
        fill: #3d311d;
      }

      .st51 {
        fill: #181311;
      }

      .st52 {
        fill: #614e2f;
      }

      .st53 {
        fill: #685941;
      }

      .st54 {
        fill: #7c653d;
      }

      .st55 {
        fill: #ac9062;
      }

      .st56 {
        fill: #edcb87;
      }

      .st57 {
        fill: #6e5f46;
      }

      .st58 {
        fill: #473721;
      }

      .st59 {
        fill: #e8c88e;
      }

      .st60 {
        fill: #c4ac84;
      }

      .st61 {
        fill: #574123;
      }

      .st62 {
        fill: #9b7f4e;
      }

      .st63 {
        fill: #f7e5ab;
      }

      .st64 {
        fill: #8a754d;
      }

      .st65 {
        fill: #74603b;
      }

      .st66 {
        fill: #efcd89;
      }

      .st67 {
        fill: #e1c38b;
      }

      .st68 {
        fill: #efcc87;
      }

      .st69 {
        fill: #ac9468;
      }

      .st70 {
        fill: #c6ab7b;
      }

      .st71 {
        fill: #161211;
      }

      .st72 {
        fill: #352617;
      }

      .st73 {
        fill: #bba06f;
      }

      .st74 {
        fill: #aa926d;
      }

      .st75 {
        fill: #372b14;
      }

      .st76 {
        fill: #a48757;
      }

      .st77 {
        fill: #9e8457;
      }

      .st78 {
        fill: #827156;
      }

      .st79 {
        fill: #b6a47f;
      }

      .st80 {
        fill: #402f1b;
      }

      .st81 {
        fill: #7d6b50;
      }

      .st82 {
        fill: #eac987;
      }

      .st83 {
        fill: #a88b5d;
      }

      .st84 {
        fill: #1b1614;
      }

      .st85 {
        fill: #1e1711;
      }

      .st86 {
        fill: #745e36;
      }

      .st87 {
        fill: #8e7349;
      }

      .st88 {
        fill: #836f43;
      }

      .st89 {
        fill: #866f45;
      }

      .st90 {
        fill: #b29767;
      }

      .st91 {
        fill: #7b6e5a;
      }

      .st92 {
        fill: #544737;
      }

      .st93 {
        fill: #e9c989;
      }

      .st94 {
        fill: #d8c58f;
      }

      .st95 {
        fill: #8f7749;
      }

      .st96 {
        fill: #4b3b21;
      }

      .st97 {
        fill: #958265;
      }

      .st98 {
        fill: #51422e;
      }

      .st99 {
        fill: #2a2013;
      }

      .st100 {
        fill: #715c37;
      }

      .st101 {
        fill: #5a523b;
      }

      .st102 {
        fill: #a58857;
      }

      .st103 {
        fill: #141113;
      }

      .st104 {
        fill: #c1a772;
      }

      .st105 {
        fill: #836f50;
      }

      .st106 {
        fill: #c4a872;
      }

      .st107 {
        fill: #ac9c7f;
      }

      .st108 {
        fill: #c8a870;
      }

      .st109 {
        fill: #bba577;
      }

      .st110 {
        fill: #b29666;
      }

      .st111 {
        fill: #453928;
      }

      .st112 {
        fill: #f9e8ae;
      }

      .st113 {
        fill: #886e41;
      }

      .st114 {
        fill: #bfa26d;
      }

      .st115 {
        fill: #6f5937;
      }

      .st116 {
        fill: #715b34;
      }

      .st117 {
        fill: #f9eebb;
      }

      .st118 {
        fill: #131215;
      }

      .st119 {
        fill: #58472f;
      }

      .st120 {
        fill: #89734d;
      }

      .st121 {
        fill: #5a4932;
      }

      .st122 {
        fill: #281d12;
      }

      .st123 {
        fill: #8a744e;
      }

      .st124 {
        fill: #fdf3c1;
      }

      .st125 {
        fill: #61523d;
      }

      .st126 {
        fill: #b99a64;
      }

      .st127 {
        fill: #7f6c51;
      }

      .st128 {
        fill: #8b7b58;
      }

      .st129 {
        fill: #745f41;
      }

      .st130 {
        fill: #705d42;
      }

      .st131 {
        fill: #99856c;
      }

      .st132 {
        fill: #9f8862;
      }

      .st133 {
        fill: #836f4f;
      }

      .st134 {
        fill: #ac977c;
      }

      .st135 {
        fill: #eecd8a;
      }

      .st136 {
        fill: #80673b;
      }

      .st137 {
        fill: #eecc89;
      }

      .st138 {
        fill: #5e523a;
      }

      .st139 {
        fill: #eecd88;
      }

      .st140 {
        fill: #47371b;
      }

      .st141 {
        fill: #f8ecb8;
      }

      .st142 {
        fill: #a18b6f;
      }

      .st143 {
        fill: #b69c6c;
      }

      .st144 {
        fill: #564a36;
      }

      .st145 {
        fill: #947b54;
      }

      .st146 {
        fill: #b89c71;
      }

      .st147 {
        fill: #ec8;
      }

      .st148 {
        fill: #403629;
      }

      .st149 {
        fill: #84693c;
      }

      .st150 {
        fill: #ccaf79;
      }

      .st151 {
        fill: #b99e70;
      }

      .st152 {
        fill: #816d4b;
      }

      .st153 {
        fill: #917951;
      }

      .st154 {
        fill: #3b3125;
      }

      .st155 {
        fill: #9f855a;
      }

      .st156 {
        fill: #d7b97e;
      }

      .st157 {
        fill: #5b4f3c;
      }

      .st158 {
        fill: #736044;
      }

      .st159 {
        fill: #554833;
      }

      .st160 {
        fill: #ddc28d;
      }

      .st161 {
        fill: #bda172;
      }

      .st162 {
        fill: #f2d899;
      }

      .st163 {
        fill: #e3c890;
      }

      .st164 {
        fill: #f0cd88;
      }

      .st165 {
        fill: #1a1513;
      }

      .st166 {
        fill: #bda16f;
      }

      .st167 {
        fill: #9b7e46;
      }

      .st168 {
        fill: #877152;
      }

      .st169 {
        fill: #3d3528;
      }

      .st170 {
        fill: #b09668;
      }

      .st171 {
        fill: #957b54;
      }

      .st172 {
        fill: #efcd88;
      }

      .st173 {
        fill: #a78f67;
      }

      .st174 {
        fill: #594d38;
      }

      .st175 {
        fill: #6c5834;
      }

      .st176 {
        fill: #a99063;
      }

      .st177 {
        fill: #c2a36f;
      }

      .st178 {
        fill: #c2a570;
      }

      .st179 {
        fill: #715a30;
      }

      .st180 {
        fill: #f4da9b;
      }

      .st181 {
        fill: #a18555;
      }

      .st182 {
        fill: #5e4f3a;
      }

      .st183 {
        fill: #1e1817;
      }

      .st184 {
        fill: #c9aa70;
      }

      .st185 {
        fill: #6c5d41;
      }

      .st186 {
        fill: #f3dc9d;
      }

      .st187 {
        fill: #957b4f;
      }

      .st188 {
        fill: #f0cd8a;
      }

      .st189 {
        fill: #d5b576;
      }

      .st190 {
        fill: #caaa74;
      }

      .st191 {
        fill: #8f7543;
      }

      .st192 {
        fill: #dbbe86;
      }

      .st193 {
        fill: #c7aa72;
      }

      .st194 {
        fill: #d0b479;
      }

      .st195 {
        fill: #806b4d;
      }

      .st196 {
        fill: #efd090;
      }

      .st197 {
        fill: #bda67c;
      }

      .st198 {
        fill: #e9c785;
      }
    </style>
  </defs>
  <path class="st66" d="M186,382c.9-1.3,3.4-4.5,2.5-6-5.9,4.9-13.6,9.1-21.5,8.5,15.1-6.5,22.9-16.5,29-31.5-1.7-1.6-6.1,5.5-7.1,6.4-15,13-30.1,15.1-47.2,4.4-10.6-6.6-13.7-15-12.8-27.4.1-1.8-.2-3.3,1.6-4.4,1.6-.8,2,1.7,2.2,2.7,1.3,6.6.2,13.5,6.8,18.2l5.1-10.9c1.7-2,3.4-4.6,6.4-4.1v17.5c0,2,4.8,5.5,6.6,6.4,19.7,9.7,34.8-6.2,42.4-22.9-9.5,10.9-27.7,12.2-37.4.9-7.8-9-3.4-33.5,11.5-30.5,4.3.9,9.4,6.8,5.4,7.5-2.7.5-3.7-5.8-6.9-5.9-9.8-.5-12.1,19.6.9,21,11.7,1.2,30.4-12.8,36.9-22.1,3.4-4.8,5.9-10.8,9.2-15.8,9.5-14.5,28.5-40.9,33.4-56.6.2-.5.3-1.6-.5-1.5-20.1,30.6-62.5,18.9-65.5-17l5.8,14.7c7.4,9.9,20.9,15.6,32.9,10.5,1.8-.8,4.7-1.7,4.3-4.2-5.2,1.5-11.1,2.5-16.6,2.1-1.8-.1-3.8.2-4.4-2,13.1-3,27.4-4.6,39.3-11.2,13.7-7.6,24.2-23.9,34.7-35.3-1.1-1.7-2.2.4-3,1-14.6,11.3-32.5,17.5-51,17.5-.2-1.1,0-1.9,1-2.5,1-.6,16.5-3,20.6-4.4,21.4-7.7,38.3-25.9,58.2-36.9,35-19.3,85.9-21.9,120.2.4,27.2,17.7,50.8,56.7,31.3,88.1-7.8,12.6-30.9,29.5-41.7,11.3-1.3,4.2-2.8,5.3-7.3,3.3-1.6-.7-1.6-2.9-2.2-4.3-2.4-1-5-2-8-3-3.7,2.4-10.1,1.1-9.5-4.3-2.2-.3-2.4-2.4-.6-3.8-1.1-2.4-.5-5,2-8-.4-2.7,2.1-.5,2-.5-2.2.1-2.8-3.2-2-4.9-.6-3.7-6.1-8.9-10-7.6-1.4.9-3.1.6-5-1-.9-1.5-2.6-2.3-3-4.6-1-6.4,3.5-2.9,7.4-3.5,3-.4,6.7-3.4,9.3-3.8,1.3-.2,3.1,1,3.2.8.6-.8-1.4-4.8,3.8-5.8,4.8-1,9.4,2.8,12.1,6.5,1.3,1.8,4.4,10.8,4.2,1.8-.1-6.5-2.7-13.2-7-18-1.6-1.8-7.6-4-3-5-6.2-6.3-13.4-10.1-22.5-9.5-5,.3-9.2,3.1-14.5,1,.1-6.1,7-11.2,12.6-11.9,20.7-2.6,30,22.6,42.4,33.9-4-40.9-59.6-54.9-80.2-17.7-3.5,6.3-10.3,29,3.1,24.1,8.2-3,12.2-15.8,4-21.4,10.2,2.4,9.9,19,.4,22.9-10.5,4.3-14.7-2.2-15.4-11.9-1-1.9-1-3.4-.9-5.4,0-.1.2,2.6-1.1,2.4-.1,1.4.2,3.1,0,4.5-.8,5.4-4.2-3.2-3.8-6.7.2-1.9,2.9-9.2,3.9-11.1,1.6-3.1,4.2-4.5,4.9-7.6-3.7,4.1-13.5,11.2-15.9,15.6-1.4,2.6-1.7,10-2.1,10.4-2.3,2.1-5-3-5.1-5.5-.5-12,19.6-28.9,30.1-33,42.2-16.3,94.4,11,88.9,59.9-1,8.9-5.6,13-7.7,19.4-1.9,5.8,3.1,2.4,5.2.2,12.4-13,7.6-40.6.8-55.6-12-26.1-45.6-41.7-73.1-32.8-37.3,12.1-55.3,20.1-75,55.5-1.2,1.2-1.5.5-1-2,.8-2.5.6-4.8,2-8,3.5-6.9,3.1-7.2-1-1-5.5,9.7-10.2,20.1-11,31.5-1.5,20.3-1.4,50.2,22.5,55.6,1.2.3,3.2.3,1.5,2-.5.5-5.9,1-7.2.8-4-.5-8.8-3.8-12.3-5.8-1.2.4-.3,2.1,0,3,5.3,15.1,22.2,22.1,35.8,12.8,4.5-3,5.2-6.1,7.4-10.6,1.1-2.2,1.5-2.1,1.2.2-2.4,24.1-33.7,21.5-44,3.5-.8,0-1.1.7-1,2,3.9,10.7,6.4,16.3,17.3,21.2,5.7,2.5,22.4,4.3,13.7,12.4-10.5,9.8-30.6,5.2-39-5.1-19.2-23.4-14.8-78.8-5-106-1-1.6-2.2.2-3,1-7.4,7.9-12.6,36-13.9,47.1-1.7,15.1-1,30.2-1.1,45.4-2.4-.3-.6-5-4-4-1.2,13.1-2.4,27.2,1,40,2.6,1.6,3.3,3.3,2,5,.5-.1.9-.2,1.4-.2,1,.1,5.6,12,2.7,5-.3-1.6.4-3.2,1.9-4.8.3-.9.6-.9,1,0,3-.9,6.5-1.8,8.8.8l2.6-.6c1.3,3,5.3,1.8,6.5-1.1.3-.9.6-.9,1,0l1.5,1.7-1.5,9.3c-6,11.2-16.2,5.6-24.3-.2-1.6-1.1-4.3-4.5-5.4-4.7-2.7-.7-7.3,6.5-7.3-6.1l-3,4c-2.9-12.6-3.5-25.6-3.1-38.5.1-2.6,1-5.1,1.1-7.9,0-1.1.6-3.8-1-3.5-2,8.9-5.7,24.9-17.9,20-4.8,10.2-12.6,18.7-11.1,31,2-.7,6.2-11.8,9-9,0,9.8,0,19.8-1,29.5-.1,1.3-1.6,12.4-3,10.5-.9-1.9,1-4.6,1-5.5v-16.5l-7,25c-1.2,4.3-3.5,17.2-1.1,6.6l2.1-1.6,1-6c-.6,4.7,7.1,15.6,7,18.5,0,1.3-1.6,2.3-1.6,3,0,.6,1.5,1.8,1.6,3,.4,7.6-.4,16.8-7.4,21.5-3.6,2.4-15.4,2.5-17-2,.5,2.2-3.5,5.2-4.5,4-.3-.3.3-2.3,0-2.9,0-.1-1.7,1-2.4,0-1.1-1.5-2.6-8-3.5-9.1,1.1-4.9-1-4.7-6-4-1.1-.7-3.8-2.1-3,.5,1.8,5.9,5.5,11.9,6.5,18.5,1.6,10.4-3.7,25.9-16.8,22.8-14.6-3.4-6.4-27.2-4.7-36.8-5.8,4.6-14.4,13-22.4,8.9-11.7-6.1-8.7-25.9,2.3-31.4-11.3-19.2-36.4-10.8-25.1,12.2,3,6.1,9.2,9.2,12.2,15.3-16.4-1.9-24.1-13.9-18.2-29.7,4.2-11.2,16.1-15.7,26.5-9.1,4.8,3,4.9,7.3,8.7,10.8-1.9-6.1-2.5-19.5,7-17.6,9.1,1.8,7.1,16,13.5,16.2,4.8.2,16.9-10.9,20.5-14.6l3.8-2c3.4,3.5,7.8-3.4,6.4-7.3l2.8-6.7h0Z"/>
  <path class="st172" d="M737,189l8,7.2c.3,1.3-.8,1.6-3,.8-.9-.4-5.3-2-4,.5,9,9,17,20.1,27.7,27.3,12.7,8.6,28.3,11.6,42.8,16.2l-1.5,3c-.8.7,0,1.1,2,1,9.8-2.8,16.1-6.9,19.5-17,.9-2.6-.8-6.8,2.5-6-.8,25.1-29.2,37.4-51.2,29.7-7.3-2.6-9.6-5.7-13.8-11.7-2.8-3.7-3.1-3.4-1,1,10.7,21.2,36.4,68.7,53.5,83,7.5,6.2,15,12.6,24,5,2.9-2.4,6.4-6.8,8.5-9.5,6.8-8.6,10.7,3.9,7.5,12.5-6.1,16.5-24.4,17.4-37,7-17.5-14.4-24.5-39.3-37.5-58-2-.8-2.7.1-2,2,3.1,9.2,10.8,19.5,15.2,29.3,2.3,5.3,15.1,39.2,12.8,41.6-.3.4-2.6-.2-2.9,0-.9.9,3.7,17.2,4,20,2.2-1.1,3.2-8.5,6.4-8,1.2.2,8.1,11.7,10.2,13.9,1.3,1.3,2.9,2.1,4.4,3.1,1.3,1.7,2,3.4,2,5,4.2,5.7,16.3,20.5,23.5,21,2.4.2,10.2-3.3,12-5,3.6-3.3,9.9-24.3,19.5-13.5,8.2,9.2-8,20.5-8,22,0,.3,3.8,5.2,4.2,5.4.5.3,4.1-1.5,8.3,2.1,8.6,7.3,7,34.3-7.8,33.7s-23.7-17-31.8-26.7c3.7,12.9,7.8,26.8,5.9,40.4-1.4,10.6-13.1,18.4-19.8,6.9-3.3-5.8-4.7-20-5.1-26.9-.2-2.4.4-13.8-.2-14.4-.3-.4-2-.1-2.8-.7-1.2-.9-.5-2.7-2-2.4,0,8.5-11.2,20.6-16.8,9.3-2.8-5.8-1.2-17.4-1.2-23.8s-2.2-8.1,0-12.5l1.5-10.9c0-.7-.5-.6-1.5-.1-.7-2.6-.7-5.4-1-8-1.2.8-1.9,3.1-2,7-1.7.9-1.8,0-2-1.5-.7-5.4-.4-12-1-17.5-2.2-.4-4.1,15.2-7,12-.4-.5,1.6-10.4,2-12,.6-3,.3-3.4-1-1-1.9,2.5-11,3.2-11.9.4-1.1-3.3,2.4-4.3,2.9-6.9,1-5-2.2-28.3-3.1-34.9-1.7-11.7-4.8-23-6.9-34.6-1.8,0-1.1,4.3-1,5.5,1.8,25,9.1,65.9-6.2,87.8-11.8,17-29.7-8.5-25.7-20.7.6-1.7,3.4-2.3,4.7-1.5,1.7,1,4.5,16.4,6.6,19.9.8,1.4,2.4,4.4,4.5,2.9.6-.4,5.4-11.7,6-13.5,2.3-7.1,2.7-14.6,4.1-21.9-2.4-2-2.4,2.3-4,4-4.9,5.4-11.2,7.7-16,1-3.5-4.9-3.1-10.1-1-15.5-.8-2-1.1-4-1-6,3-8,8.9-14.9,11.8-22.7,7.2-19.4,5.4-62.6-4.6-80.9-1.3-2.4-2.3-4.6-5.2-5.3,8.8,24.8,9.5,50.4,5.7,76.2-1.2,8.5-3.2,15.1-6.7,22.8-1,2.5-2.7,2.5-5,0,0,3-1.1,3.3-3,1-1.1-.6,1.2-2.8,1.1-2.7-3.5,5.1-7.9,8.7-13.1,10.7.5,1.3-5.2,3-4.9,2.8,3.4-1.8,5.6-2,8.1.4,1.9-.8,2.8-.2,2.7,1.8,2.2-2,4.2-3,6-3h1c-7.8,8.2-15,10.3-26,5.5-3.3-1.4-12.3-7.4-7-10.5,4.1-1.2,6.2-.6,6.4,1.9,1.1.8,24.8-7.7,19.8-14.5,1.1-1.5,0-2-3.2-1.5-.9,3.2-3.8,7.1-7,8-1.5.4-2.8.4-4,0-2.3,1-5.9,2.4-8.5,2-.9,0-.7-2.1-.5-2.5.3-.7,10.8-7.1,13-9,3.5-3.1,5.5-5.7,8-9.5.8-3.1-1.5-2.2-3,0-11.7,13.8-27.5,14.3-37-2-.7-1.6-.6-1.9,1-1,6,11.2,15.1,12.6,25.7,6.2,2.5-1.5,16.3-12.7,14.3-15.2-2.7,1.9-5,4.4-8.5,4.9-.9.1-12.7.8-9.4-1.9,26.4-1.6,27.2-34.6,25-54.5-1.5-13.6-5-27.7-13-39-2.1-1.4-.6,1.6-.3,2.3,2.1,5.8,6,12.1,5.8,18.2-12-22.8-29.4-43.6-54-53-21.5-8.2-39.2-13.1-61.5-3.5-27.4,11.8-52.8,54.1-33.8,81.8,5.8,8.5,12.1,6.1-1.2,12.7-7,3.1-16.8-5.7-18-12-6.1-13.3-4.6-34.4,0-48,0-2.4-.3-3.1-1-2-2.6,16.8-4.6,34.4,0,51,3.9,6,9.1,10,15.6,11.9l.4,1.1c8.5.8,17.8-2.9,22-10.5-2.8-1.4-3.7,3-6.5.5-9.4-8.4-11.2-38.1-4.4-48.3,1.8-2.8,3.3-5.2,5.8-1.7-.6,3.2-.2,3.9,1,2,5.9-15.6,15.8-30.5,33-34.5,24.2-5.7,70.4,2.3,72.9,33.2.4,4.8-.3,17.1-6.9,15.4.2-4.4,3.7-8.1,3.9-12.6.4-7.9-5.4-20.6-13.9-22.4,2.7,3.9,6.7,7.3,6.1,12.5-.2,2.2-2.2,1.5-2.9,3.1-1.1,2.8,0,7.2-3.7,9.3-8.5-10.3-13-22.8-25.8-29.2-26-12.8-49-4.6-58.7,22.7,1.8,1.8,3-2.1,4-3.5,1.5-1.1,2.5-1.1,3,0-1,.9-6.6,7-6.8,7.7-1.7,5.5-.8,12.6-.2,18.3,5.5-4.2,7.8-13.4,16-13,1.4,6.1-5.2,8.6-6,14,5.2-6.1,18.4-10.5,15,2,4.9-1.5,7-8.7,12.7-6.3,11.3,4.7-4.2,18.9-10.2,21.2-4.2,1.7,2.1-5.3,2.5-6-.4-2-.2-3.4.7-4.4l-9.5,7.2c-1.5-.5-3.2-.1-5.3,1.1l.2,2.3c-5.9,3.2-6.6,6.5-6.2,12.7,4.3,7.6,25.4,13.2,34,14,.7,4-6.7,1.2-9,2l3,3h-6s9,2,9,2c-2.2,7.1-14.3,2.9-19.2.8s-8.1-6-12.3-7.7c-2.7-1.2.7,3.4-2,2s-5.7-4.8-8-7c-33.5,30.5-54.2-25.7-47-53,14.8-56.3,84.1-74.1,133.8-54.8,12.7,4.9,35.1,19.1,44.7,28.8h0Z"/>
  <path class="st66" d="M822,511c2.8,2,3.1,5.7,1,11,2.8.6,3,5.6,0,6-2.3-1.3-2.5,8.9-2.4,11.4,0,.2.5.5,1.1.7-2.6,2.8-1.9-7.7,2.4-3.9,0,2.3,5.3.6,5-1.7,2.2-3.3,7.2-1.1,5.9,2.5.5,1.3,1.1,2,2,2,1.4-1.3,1.9-.8,1,1l.9,1.3c4.4-5.4,6.8-6.5,7.1-3.3-1.6,2.2-2.3,3.2-4.3,5.2-.8.8-3.4,1.8-.2,1.8,3.1-2.3,7.4-3.3,10.5-5.5,4.6-3.4,2.7-5.4,9.8-7.2,8.1-2,20.2,0,28.4,2,1.7.4,3.6.2,1.8,1.7-3.2,2-5.3,3.5-7.8,5.8-1.1,2.3-4.8,2.6-6.2.2-.8,1.8-2.5,3.5-5,5,.3,1.3-.7,1.2-2,1-.6,2-3,4.9-4.5,6.7-.3.3-.4.8-.5,1.3-3,1.6-6,3.3-9,5l-.2,2.3c-3.6.8-5.2,2.7-4.8,5.7-.9.3-3.8.8-4,1,0,.1.9,1.5.7,2.3-.7,3-14.1,9.7-17.6,12.2-4.1,3.1-8.8,7.4-12.1,11.4l11.7-7.8c13.2-8.1,24-12.3,39.3-15.2,1.8-.3,2.8,0,3,1-2.2.5-5,.2-6,3,16.4-1.2,46.8-5.9,43.9,19.4-.3,2.5-3.7,11.9-6.4,7.6-2-3.2,1.7-8.8-5-15-16-14.8-53.2-2.9-69.4,7.6s-42.8,44-52.5,60.5-15.1,36.3-20.6,54.9c-1.8.2-1-2.2-.9-3.4,1.6-18.3,8.1-36.8,12.6-54.4,1.4-5.6,1.8-11.6,3.3-17.2,1.6-6,1.3-6.3-1-1-5,12.7-9.1,24.6-12.7,37.8-7.8,28.7-10.6,61.7-25.5,87.5-7.9,13.8-19.1,25.2-28.8,37.7,30.9-13.5,50.3-58.4,88.5-54,8.1.9,15.6,8.2,10,16-2.4,3.2-16.5,7.3-21.4,9.6-2.4,1.1-18.1,9.8-18.1,10.9,2.9,2.4,7.7,4,9.2,7.8,3.9,9.5-4.8,5.3-10.7,5.8-13.6,1.1-30.7,13.9-42.8,20.2-22.8,11.8-46.9,20.1-72.7,22.8l2.5,2c.9.7-.6,1.7-1.2,1.9-3.5,1-14.4.2-18.9.2-1.7,0-4.4.6-5.5-1-.6-2.1,3-.5,2.8-.6-7-1.2-19.7-5.4-12.8-13.4l2.3-1.7c36.5.7,75.7-14,96.4-45.7-22.4,23.8-58.9,38.4-90.9,42.4-12.4-2.8-25.2-4.3-38.2-4.5l-1.7-1.5c.2-1.8,1.6-2.5,4.2-2.1l.6-4c-4,.5-7.8.4-11.5-.5l-.2-2.4c25.5,1.4,54.8-7,76.7-19.8,13.5-7.9,20.9-16.7,31.4-27.7,1-1,.9-4,3-2l.5,4.5c9.8-10,10.2-22.7,9.5-36,2.8,1.9,3.4-.9,6-1,1.2,1.3-3.8,7.8-1,9,1.4-3.9,5.4-3.8,4-9,4.8-.8-2,5.8,3,5l1-7,5,2c2.8-5.4-2.2-4.2-6-7.5-6.3-5.3-10-16.7-7.5-24.6,2.7-8.9,10.2,1,15.5.5-9.7-15.1-31.9-13.3-32.9,6.1-.4,6.5,7,13,5.8,16.7-2.1,7-11-8-11.7-11.1-5.6-27.6,31.9-42.5,48.8-21.3,1.9-4.4-.1-19.4,1.2-21.8,2.8-4.9,11.9-.8,14.8,2.8,1.5-.8,1.5,2,1.5,3.4-.2,32.2-5.7,66.5-25.5,92.6,0,1.2.3,1.6,1,1,19.1-31.2,26.8-67.9,24-104,0-11.7-2.6-20.1,1.5-32,.6-1.8,6.8-15.5,7.5-16h2.2c1.7,3.7,3.4,7.1,5.1,10.3,3.9-.6,7.1-1.4,9.8-2.3-2.1-3.3-2.1-6.3,0-9-1.7-3.1-1.7-9,0-12-2.7-.7-2.4-1.8,0-3l-.6-4.5c-3.8-4.1,9.5-8.3,6.6-1.5-.7,3.1-.8,7.7-1,11,4.9-4.6,5.3-14.5,7.3-21.2,2.5-8.6,7.2-14,5.5-24-1.7-9.6-15-18.2,4.2-24.7,1.2-3.5,3.3-.6,4,2,9.2,8.8,4.1,15.9,1,26,4.9-1.8,5-8,7.5-11,1.2-1.4,2.4-.3,2.4.5.2,3.8-6.8,9.1-8,12-.7,1.7,1.3,2,2,1.5.3-.3.3-3,2-3,0,.7,0,1.3,0,2-.9,4.7-1.4,15.3,1.9,3.5l4.1-6.5c2.6-8.2,8.8-21,2.5-29-3.2-4-8.5-4.2-6-12.1,2.8-8.6,12.1-8,18.6-4h0Z"/>
  <path class="st66" d="M169,523c-5.3-11.9-7-22.4-4-35.5.2-1-.6-3.3,1.5-2.5,1.4.6,7.9,11.4,8.7,13.3,2.4,5.9,1.8,12,4.3,18.7,1.8,4.6,15.8,29.1,18.9,31.1,1,.6,4.4,0,4.5-.1.7-.8-7-15.6-8-19-1.1-4.2,1.1-6.5,4-3,2.8.1,5.9,2.3,8,4v-6c4.2,4,.3,12.4,4.6,18,4.8,6.3,2.5,4.2,4.4,11,0,3.5-1.9,9.7-5.7,6.7-2,.7-2.3,2.4-2.3,4.3,2.6.3,7.5,6.5,6,9,4.3,3.2,6.6,3.5,7,1-.9-.3-.9-.6,0-1l.4-2.1c4.6,1,4.8.6,4.6-3.9-2.5.7-3.5-.8-2-3-3.6-7.5-6.8-15.5-6-24l4.6,9.9,4.4,4.1c-2.4-7.7-6.8-18.8,2-24,1.5-2.4,2.2-1.6,2,1,6,.9,8.9-2.3,13.4,4.1,6.4,9.2.2,12.5-2.9,19.9-5.7,13.6-.5,22.6,4.5,35l2.4.7c1.3,2.7,5.8,20.1,4.9,21.3-.3.4-.8.8-1.2,1,1.5.6,2,2.5,1.5,5.6,1.8-.5,2.9,0,3.5,1.4l1.2.5c0-.8,1.7-1.6,4.8-2.5-1.7-1.3-1.4-3.3,1-3,.9-1.3,2.2-1.7,4-1,4.1,7.9,7.9,10.7,10,21,2.9,1.2,4.3,7,1.6,8.5l-.6,3.5c-1.5,6.3-.9,13.5-1,20,.3,1,.6.9,1,0,.4-2.6,4.4-6.9,7-7l1.9-2c.5.8,1.2,1.5,2.1,2,1.8,0,4.2-.5,4.9,1.6,1.5,4.6-.9,15.7,1.1,21.4,16.8-20.5,54.5-3.5,48.3,21.8-.9,3.5-5.7,13.3-9.9,13.2-5.7-.1,2.1-9.4,2.9-12.2,2.2-7.5-1.5-16.5-7.8-20.8-9-6.2-17.1,1.5-23.5,7.5,4.2.8,8.6-6,12.5-2.5,8,7.2-1.3,28.9-11.5,31.5l11,1.5,2,.9c-1.7,3.1-2.1,5.5-2,9.1l1.7.4c.3-2.7,1-5.1,2.3-7.4-1.9-.9-1.9-2.1,0-3,.3-.3-.5-2,.5-2,3.2,5.6.7,13.9,1.6,20.4,1,7,7.3,13.2,11.4,18.6l2-3c13.4,15.8,27.4,30,46.8,38.2,15.4,6.5,35.2,9.2,51.7,6.8,4.1-.9,3.1,5.8,1.7,7.3l.3,1.7c-.8.5-.2.9,2,1,5.4,1.3,2,6.8-2,8.8-3.5,1.8-15.6,4.1-18,1.2-1.1-2-1.9-2.3-4.2-2.3-33.8,3.4-66.7-6.3-91.2-30.7-3.6-3.3-7.4-5.3-12.3-5.4-33.3-26-46.4-70-49.4-111.6-1.1,0-1.1,1-1,2,2.3,12.1,4.2,24.6,5.7,37.3l-1.7,1.7c.2.7,0,1.4-.6,1.8-.8.6-7.5-14.6-6.4-18.8-1.3-4-2-8.9-3.5-13-8.2-22.4-23-40.2-32.6-61.4-2.6-5.8-8.6-10.3-12.9-14.7-.6-.5-.6-.2,0,1,2.5,3,6.2,8.8,8.2,12.3.6,1.1,2.7,3.6,1.4,4.7-19.3-26.1-47.6-50.8-82.7-43.7-8.2,1.6-19.6,6.6-19.8,16.2,0,2.1,2.3,11.4-3.6,6.6-1.4-1.2-4.3-10.7-4.4-12.7-.7-13.5,17-18,27.5-19.3,3.8-.5,29.5-2.2,30.5-1,.3.4-.5,3.2,0,3.9.7.9,19.1,4.8,21.9,6.1-9.4-9.1-20.6-17.7-32-24l-.9-1c.6-3-1.3-5.9-5.7-8.5.1-1.3.3-2.5.6-3.5l-4.7-.7c-3-2.9-7.2-4.2-11.3-5.3-1.1-.4-1.9-.7-3-1-1.6-1.8-2.9-2-5.4-2.3l-.6-2.7c3.9-2,11.6-2.1,16-3,.5-.4-6.5-8.6-7.2-10.3-7.5-18,.6-31.7,17.2-14.7l-1.2,1.8c3.3,10,11.7,17.1,19.7,23.4-2.1-2.4-2.6-4.5-1.4-6.1h0Z"/>
  <path class="st137" d="M464,864c3.8-1.9,6.7-.3,11.1-2.4,2.4-1.1,18.3-12.6,20.4-14.6,6.8-6.2,11.2-17,12.5-26l-5,6.5c-3.2,1.1-8.5,8.8-10.7,9.4-2.1.5-3.9-1.2-6.3-.5s-7.7,6.4-11.1,8c-17,8.3-18.7-11.4-3.9-15.4l-5,4.5c3,.8,8.3-2.9,11.3-4.7,30.1-18.3,33.1-55.4,23.1-86.8-4.5-14.2-17.5-40.8-29-50-4.9-4-10.9-5.9-15.5-10,15.9-2.5,28,6.6,35.8,19.7l8.2,17.3c0-19.7-18.9-33.2-16-53,1.6-1.9,10.4,10.2,11.2,11.3,5.9,8.3,9.8,17.6,14.3,26.7,4-14,11.9-25.9,21-37,3.1-.2.5,1.1.5,1.5v17c0,2.7-4,9.2-4,12.5,6.8-5.7,12.4-13.5,21.4-16,4.5-1.3,12.4-2.8,12.6,3.5-18.2,6.6-32.3,15.7-37.7,35.3-8.5,30.9-7.8,60.6,1.2,91.2.9,3.2,4,14.1,5.5,16l8,2c.7.5,3.7,3.4,4,3-1.8-3.8.2-10,5-7.5,3.9,2.1,5.6,12,9,15,0,1-1.5.2-2,.5-2.1,1.5-3.1,1.5-3,0-.9-.6-1.8-1.4-1.8-2.5-.4,5.2-3.9,6.5-8.2,4.5-8.5-5.2-12-7.1-15-17l-1-.3c-.3,1.5-.8,2.5-2,1.3h-2.1c-3.4,1-5.8-.2-7.2-3.6,1.5,2.9,1.9,5.8,1.3,8.6,1.2,2.9,2.6,7.4,4,10,.6.6.6,1.3.6,2-.2,4.4-.7,14-5.6,15-1.4-3.3-2-5.1-3-8.5-.4-1.4.6-1.8-2-1.5-1.5,7.1-2.3,16.5-5.6,22.9s-17.5,18.9-25.2,15.4c-4.3-2-2.1-6.5-4.2-9.3-6.7,1.4-9.7-7-8.7-12.7l-1.3-1.3h0Z"/>
  <path class="st33" d="M866,596c.5,2.9-.6,1.7-2.3,2.1-3.4,1-7.2,1.5-10.7,1.9,1,2.5,12-.2,12,1.5,0,3.5-8.1,3.5-10.6,4.4-.8.3-2.1,0-1.4,1.6.1.3,3.7,4.8,4,5,3.2,1.9,7.1-.3,13,5,11.5,10.4,16.5,31.6,6.4,44.4-3.7,4.7-20.5,17.1-25.3,10.5s7.7-6.3,11.9-9c9.8-6.3,9.3-20.3,0-27-6-4.4-5.6-.3-10.5-.4-4.5,0-11-3.4-16.2-3.9-16.2-1.7-30,6.7-35.4,21.9,6-.8,12.1-2,18,0l-11,5c4.2,0,11.4-3,15.3-2,.9.2,1,2.1,2.4,2.8,4.7,2.5,9.3,3.4,12.8,8.3,12.2,17.3-15,31.2-22,13.9-.5-1.2-.4-3.8-.5-4-.5-.5-12.5,1.5-13,2-2.1,1.9,1.8,1.9,1.9,2.1,1.4,2-6.1,5-7.8,6.5-4.2,3.7-8.7,10.8-13.6,15.4-4.1,4-9.7,7.1-13.5,11.5,2.3,2.5,15.8-6.7,16-2,.2,4.2-29,37.4-34,42-1.8,1.6-15.6,13.1-17,11.5-.3-1.8.2-3.1.8-4.7,3.8-11.1,12.9-24.5,17.7-36.3,8.2-20.2,13.1-37.1,24.7-56.3,7.6-12.5,18.4-24.4,27.4-36.6,14.1-19.1,20.1-24.5,42.4-32.6,5.8-2.1,9.9-6.7,18-4.5h0Z"/>
  <path class="st147" d="M331,809l1.2-.7,7.8,4.7,3.5-.7c7.5,3.1,15,6.2,23,8.1l2.5,2.6c9.4,9.6-5.9,12.5-14,11-11.8-2.6-24.6-7-35.7-11.8-14.9-6.5-47.8-28.2-61.8-28-2.9,0-9.1,4.1-10.4-.9-1-3.8,5.2-9.1,7.9-11.3-2.1-3.8.9-3.3,4-2,.3.1,7.1,3,6,.5-9.8-12.8-27.3-9.5-40.3-14.7s-11.8-18.2,3.8-19.8c29.5-2.9,42.7,19.9,61.5,36.5,11.9,10.5,26.3,20.6,41,26.5h0Z"/>
  <path class="st124" d="M487,724c17.3,18.4,17.3,41.4,8.8,64.3-11.7,31.2-53.4,57.6-86.2,58.8-11.4.4-6.2-4.6-7.5-6.1-.2-.2-3,0-4,0-8.8,1-1.5-4.8,2.4-7.2,2-1.2,4.1-2,6.4-2.7-4.1-1.3-6-3.2-5.6-5.6l9.9-.5c.3-3.1,7.2-5.8,9-3,6-1.3,24.2-.3,20-10,2.7-1.7,7.5-3,11-3,19-9.6,18.9-9.9-.2-.8l-1.8-.2c-2.4,2.3-7.7,3.4-11,3-4.2.8.6-5.7-2-9,7.1-1,13.5-3.3,20-6,.4-2.4,5.4-3.6,8-4-.3-2,1.6-3.9,5.9-5.7-3.2-1.5.9-13.6,2.2-16.1l1.9-1.2c14.8-3.4,20.1-25.8,7-34-.8-2.8,3.4-9.9,6-11h0Z"/>
  <path class="st66" d="M225,659c6.5,4,13.3,13.2,17,20,10.9,12.2,21,26,25,42,1.9-.3,3,1,3.2,4.2l3,.6c8.8,22.7,20.2,45.8,38.8,62.6l1,3.6c1.3,1.4.8,1.9-1,1-24.5-20.7-55.2-45.9-72.4-73.1-1.2-2-6.2-8.8-1.1-7.9,3.7.7,7.6,4.8,11.6,3.5l-33.5-31.5c-1.8-2.7,1.4-1.9,1.5-2,1.5-1.7-10.8-4.1-11.9-2.9-.2.2,0,2.8-.5,4-5.1,11-22.9,7.5-24.5-3.6-2.3-15.6,18.2-24.2,30.9-20.4l-7-3c1.9-3.5,6.3-1.4,9-.5,2.4.9,6.3,3.9,7.7,4.2,1.2.2,2.7-.8,3.3-.7h0Z"/>
  <path class="st188" d="M507,194l2.3.9c2,15.2,2.2,13.7.6-4.4l1.6-1c.2-9.2.4-18.5.7-27.7l-1.2-.8c-.5.5-.9.1-1-1-.7.6-1.2,1.4-1.3,2.3l-.4,12.3c-.5,2.2-1.6,1.6-2.3-.6-1-6.4-1.3-8.3-.7-5.9h-1.3c-2-2.6-2.1-6.2-3-9.1-.5-2.6,1.2-3.3,5.1-2.4,12.4-15.4,10.8,6.9,9.9,15.4-.3,1.8-2.5,12.5-2,13,.2.2,2.2-.1,3,0,8.6-30,30.8-65.8,66.4-62.9,5,.4,31,5,19.1,11.8-11.2.4-26.6-3.6-37,1-4.3,1.9-.8,1.6-.4,5.1-19.7,5.6-34.6,26.1-42.2,44.3-4.8,11.5-5.4,21.6-6.8,33.7,0,8.7-.7,17.4-2,26,0,7.6-.3,15.6,2,23,1.4,5.3-2.2,11.2-7,12-3,6.3-5,16.7-13.9,15.9-1.5-4.1-2-4.8.9-7.9,1.7-1.9,2.9-2,3.5-.4l3.5-7.1c-1.1-2.9-.8-5.1,1-6.5.2-1.1.9-2.3,1-3,.2-.7.5-1,1-1l1.8-1.8c0-17-.4-34.1-.8-51.2-2.9-23.9-19.4-59.4-41-71.5-7.2-4.1-11-4.1-17.5-9.5-6-5-19.1-1.3-26-1-11.3.5-14.1-4.1-3-8,49-17.6,76.9,27.2,87.5,68h0Z"/>
  <path class="st66" d="M256,694c.3.8.5,1.7,0,2.3-.8.8-12-15.5-13-18.3-5.9-6.4-11.6-13.1-17-20-3.3-3.4-6.5-6.8-10-10-1.4-2.2-2.7-4.2-4-6-8.9-8.5-15.6-11.4-28.4-9.9-3.8.5-14.2,5.1-16.6,3.4-1.2-.8,0-3.1-3.2-2.3-14.9,3.3-16.6,29.1,1,32.7,5.8,1.2,3.7-4.8,6.2-6.4,7.5-4.6,6.9,14.5-2.4,14.6-11.9.2-28.4-14.4-28.5-26.6-.1-9.7,7-31.5,17.7-34.3,2.1-.5,10.2.5,10.2-1.7,0-.6-5.3-6.7-6-10l3-2.5c-1.5.5-11.2-1.5-9-4,20.2-5.8,31.8,0,46.5,13,27.7,24.8,37.5,54.7,53.5,86h0Z"/>
  <path class="st135" d="M472,764c-2.2,1.3-6,1.4-8,0-.7,0-1,.3-1,1,2.1-.4,5.6-.7,7,1,.3,0,.7,0,1,0v2.5c-4.7,5-15.4,15.8-22,13.5-3.7-.4-7,0-9.8,1-4.1-4.1-9.5-2.9-9.2,3,.8.8,3.2.4,3,2-4.6.1-9.7,1-14.3-.2-2.6-.7-11.7-5.6-12.4-5.8-6.2-1.3-8.3,1.5-13.9-5-6.7-7.8-6.5-23.6,3-29,.6-.4,5.7-3.1,5.5-.5,0,.9-9.4,6.2-10.7,13.2-2.4,12.7,5.1,14.6,15.8,15.3-1.6-3.5-4.4-9.6-4-13.4.3-2.9,3.7-6.4,4-8.1,0-.4-3.6.2-1.2-6.2,3.2-8.8,15.8-6.8,14.2,4.2-.6,4-5.6,5.3.5,7.6,16.1,6.2,19-19.4,26.1-20.1,4.4-.4,14.1,14.7,19.4,16-10-19.8,18.9-25.6,18-5.6-.4,8.2-5,10.2-10.9,13.6h0Z"/>
  <path class="st24" d="M488,894c4.3-4.2,8.3-7.2,12.5-11,6.9-6.2,7.3-10.9,11-19,5,13.2,13.4,20.8,25.5,27.5,3.3,1.8,14.7,4.8,14.7,9,0,.8-2.9,6.4-3.6,7-4.6,4.2-20.5-2.5-26-4.5-.7,5.1,11.3,22.7,10.8,25.4-.9,4.6-9.6,3.4-12.8,2.6-1.2,26.9-16.2,22.8-18-1-13.6,4.2-2.2-9-.2-14.7.3-.8.6-3.4-.8-1.8.9,1-4.9,8-4,4,.5-2.1,6.8-13.7,6-14.5-7.5,2.6-14.7,7-23,6-.3-2.8,3.5-2.9,4-5.5.1-.6-2.7,0-2-2,1.6-2.3,3.7-3.2,6-4.5-.6-1.9,4.5-3,6.4-3.3.4,0-6.6,2.8-6.4.3h0Z"/>
  <path class="st66" d="M551,763c-12-.1-17.7-14.2-9-22.5,11-10.5,20.6,11,9,17.5,7.2,1.5,20.5-17.2,23.6-17.8,5.5-1.1,10.5,13.4,13,14.9,5.2,3.1,14.2-2.7,16.8,6.9l6.5-7c.1,2.8-4.2,4.7-4.1,7.5,0,.8,2,.8,2.6,1.6.2.2,1.2,4.8,1,5-.5,1.1-7,5.6-5.5,7l14-7c-5.4,14.2-19.3,20.5-34,19-.5-1.5.7-2.1,1-3,.7-3.2-2.7-3.8-9.9-2-2-1.5,1.6-.8,0,1-1.7.3-3.8,1.7-6,1-3,2.2-12,2.5-15,0-1-1.5-1.7-3.5-1.9-6.2l-5.6-9.7c-.8-1.9-.5-3.2,1.5-4.2,3.7-1.1,4.3-1.7,2-2h0Z"/>
  <path class="st172" d="M215,524c-.8,3.3-2,6.6-2,10l-1.5-1c-.8-12.7-9.3-34.6,12.5-29-1-17.5,2.7-34.6,4-52,1.3-.1,3.2.6,4.1-.6,1.1-1.4,3.4-10.2,4.7-13.1,1.1-2.5,5-11,7.1-11.8,1.6-.6,3.6,1.5,5.6-.5,1.9-1.9,1.2-7.3,3-10,1.6-2.4,8.5-6,10-9.1.9-1.8-3.9-4,1-10.9s11.8-4.5,15.5,2.4c4,7.6,1.9,16.8-2.2,23.9-1.2,2-2.2.6-2.6.9-1.5,1.2-3.5,7.2-5.7,8.7-.9-2.1,1.6-5,2.5-7-.2-1.2-1.6-2.3-1.7-1.6-.4,2-4,.9-3-1.3,0-.1,1,2.3-1.3,1-26.9,20.4-26.9,61.5-31,92l-1.8.3c0,3.5,0,14.8-3.2,8.7-.6,0-1.4,0-2,0v4c-1.8.6-1.8-.9-2-1-4.1-1.7.8-4,.8-3.6,0,.4-1.4,2.1-1.8.6-3-1.3-3.2-12.4,0-14-1.6,2.5-2.5,5.8-2.6,9.9l-1.4,2.1-.8,1.2c-2.1-1.3-3.5-1-4.2.8h0Z"/>
  <path class="st164" d="M517,222c4.4-18.6,17.2-45.3,36-52.5,4.2-1.6,23.8-6.6,24,1s-17,10.9-17,12c0,.4,1.9,1.4,1.9,2,0,1.5-21.4,13-24.9,16-7.4,6.4-14.5,18.3-11.2,28.2,2.1,6.5,12.8,8.2,11.1,16.1l-8.9,2.6c4.4,3.3,9.2,10.8,13.5,13.5,2.6,1.7,7.2,1.7,8.6,3.4,2.8,3.4-.9,4.8-3.8,5.3-14.6,2.7-30.4-11.6-31.3-25.8-.9-7,.4-15.3,2-22h0Z"/>
  <path class="st112" d="M539,735c-7.9,5.1-7.6,19.3-1,25.5,2.7,2.5,4.8,2.7,8,3.5,1.2.2,2.2.5,3,1-.9,7.6,9.8,12.1,6,20h-1c-.2,1-1.1,1.2-2.4.5l-10.6-4.5c-6.2-3.3.2,1.5,3.1,3.4,3.9,2.4,7.5,4.2,11.5,6.1,2.1,3.5-1,6.1-4.9,5.5-.7-.1,9.5-2.3,11.3,2,4.7-.9,9.4-1.1,14,0,2.5,3-8.2,1.6-5,1.9v1.1c-3.8.2-7.7-.1-11.5,0-1.2,0-3.7-.8-3.5,1,5.9,2.7,11.6,4.1,18,5,.2,0,1.1.9,2.4,1,4,.4,8.5-.4,12.6,0-1.7,2.8-2.8,4.9-1,8h-7l-1,1.2c-3.6-.7-6.5-1.1-9-1.2,4.5,2.2,3.4,5.1-1,3-17-9.9-32.6-16.2-42.5-35-8.9-16.8-9.1-47.3,6.5-60,2.9-1.1,3.2.8,1,5.7,2.8,1.7,4.1,3.5,4,5.3h0Z"/>
  <path class="st10" d="M501,159c-3.3-11.2-7.5-19.6-14.6-28.9-1.8-2.3-8.9-7.9-8.3-10.5,6.5-6.9,14,1.9,17.1,7.7l6.8,15.7c-.6-9.9-1-19.6,0-29.5.4-3.6,4.6-27.5,6-28.5,6.2-4.2,8.5,21.4,10,24.5v33c0,.4-3.6,4,.5,1.5,2.5-7.5,11.5-30,20.8-28.8,10.7,1.3-5.3,14.9-7.2,17.3-9,11.2-13.3,25.6-16,39.5-3-5.8,1.7-14.1-3.5-19-1.7-.4-4.8,5.4-5.6,5.8-.3.1-4.4-1.2-5.8.2h0Z"/>
  <path class="st68" d="M492,247c-22.9-2.3,1-12.2,2.8-20.7,1.1-5.5-.4-11.7-3-16.5-5.4-10.2-22.8-20.4-32.3-27.7-3.8-2.9-15.1-7.9-12-14,3-5.9,22.9,2.7,27.5,5.6,23.2,14.9,44.2,72.9,17,91.9-4,2.8-20.1,8.1-21.9,2-1.2-4,6.5-4.4,9.4-6.4,1.4-.9,13.5-13.3,12.5-14h0Z"/>
  <path class="st117" d="M547,861c3.7,0,7.4.3,11,1,9.5,1,16.7,2.8,24,9.5,14.3,13.2,5.4,37.5-12.2,41.8-2.2.5-10,1.9-10.8-.8-1.4-4.5,8.1-4.7,11-6,15.6-6.6,14.8-30.4-4-31.5,2.2,14.4-13.6,3.6-17.4,3.9-1.3.1-.3,6-9.6,4.1-2.3-1-2-2.8.9-5.3l1-10.7c-1.8-5-1.2-7.4,2.1-6.9.7,1.6,2.8.8,4,1h0Z"/>
  <path class="st139" d="M250,486c.1-5.9,4.7-10.8,6.5-16,1.1-3.3,1.2-15.6,5-8,1.4-2.2,4.3-1.7,6.1-2.9,3.8-2.8,4.9-13.6,4.5-18,1.5.2,2.2,3.7,2.5,5,6.7,26.6-15,55.7-27.1,78-1.9,2.3-1.8.2-1.2-1.2.9-2.5,2.6-6.2,3.8-8.7,2.7-6.3,2.4-6.6-1-1l-6,10c.2-3.7,1.2-7.4,2-11l3.4-23.6,1.6-2.4h0Z"/>
  <path class="st141" d="M464,864c1.3,0,2.7,0,4,0-1.7,2.9-.9,7,.8,9.7s3.8,2.4,5.2,4.3c-5.3,2.8-14.9,6.9-20.8,4.3-2.6-1.1-3.7-7.4-9.2,1.2-5.5,8.5.8,20,9.3,23.7,3.1,1.3,8,1.2,10.3,2.8,1.5,1,1,3.5.3,4-.7.4-7.8.2-9.3,0-12.9-1.8-22.5-16.4-20.3-29.2,1.9-11.2,19.1-20.7,29.8-20.7h0Z"/>
  <path class="st180" d="M519,842c2,3.7,7.4,3,10.1,7.5,1.2,2-.2,3.3,0,3.5.8,1.2,16.4,3.3,19,4.5.5.2,1.3,1.3,1,1.5-2.4,0-4.3-.7-6,1-2.4,2.4.1,4.7,0,7.4-.2,1.9-.9,9.8-1.2,11-.3,1.5-3,2.5-2.7,4.6-13.8-2.8-19.9-12.1-25-24,.3-2.2,2.1-3.8,2.6-5.9.9-3.8-1-9,2.4-11.1h0Z"/>
  <path class="st186" d="M613,827c3.8,1.7.5,2.5-1,4.5,4.1,4.6,9.6,5.9,15,8.5.2,1.8-2.8,1-4,1-1.7,0-3.3,0-5,0,4.9,11.3-16.4,4.3-22,3-5-2.7-8.6-7.1-10.9-13-2.1-2.7-5.5-3.9-10.2-3.7-4.6-.6-7.6-2.3-8.9-5.3h8v-1c-1.9.2-2.8-1.3-4-2,2.8.5,2.5-.9,1-3,13.1,2.6,26.3,5.5,39.5,8.5l2.5,2.5h0Z"/>
  <path class="st112" d="M566,822c2.8,1.1,5.4,2.3,8.3,3.2,3.2.9,7.6.4,10.1,1.9,3.9,2.5,6.8,16.2,14.1,15.9l-2.5,1c-13.8-3.2-24.2-7.7-36.3-15.2-24.2-14.9-39.6-34-41.7-63.3,0-1.2-.8-5.5,1-5.5,1.5,30.7,19,51.2,47,62h0Z"/>
  <path class="st12" d="M808,330c12.5,17.2,40.2,44.1,58.4,17.9,2.9-4.1,3.1-8.7,5.4-12.6,7-12.2,25.1-5.1,13.2,11.2-19.7,27-67.9,13.9-77-16.5h0Z"/>
  <path class="st162" d="M411,825c-3.1.8-5.4,1.6-9,1,.5,2.1,4.3,1.8,5.7,3.3,4.2,4.3-1.2,3.7-4,5-2.9,1.4-6.9,4.1-8.8,6.7,1,0,2,0,3,0-8.5,2.7-17.5,2.3-26,0l6-4c-7.8.3-15.5-1.4-23-3,3.8-1.8,14.5-.2,15.1-6.6.2-2.3-2.7-3.6-1.1-4.4l3.9-1.4c11.4,1.3,22.9,1.8,34.5,1.4l3.6,2h0Z"/>
  <path class="st13" d="M783,444c8.5,9.9,10.5,25,15,37l1.3.2,1.7,16.8c0,7.8.2,14.3-1.5,22-.2,1.1,0,3.2-1.5,3-2.1-6.1-2.8-12.6-4.8-18.8-2.7-8.4-9.1-19.8-10-28-.8-7,2.7-6.2,3.8-.2,1.6.3,1.1-1.4,1-2.5-.5-5.8-4.4-22.4-7-27.5-1.3-3.7-1.5-4.3,2-2h0Z"/>
  <path class="st56" d="M670,255c1.4.2,2-.6,2-2,10.5-2.3,14.5,7.6,8,15.5-3.5,4.3-14.2,8.2-19.6,8.5-7.1.4-4.2-2.5-5.7-3.8-1.6-1.4-6.1,1.9-4.8-6.6.7-4.7,6.6-8.5,11-9.6-.9-3.6-7.9-1.2-9-2,3.8-4.3,12.8-1.5,18,0h0Z"/>
  <path class="st172" d="M903,399c20.8-1.8,26.6,22.2,16.8,37.3-1.8,2.9-9.8,13.4-12.9,9.2-3.6-4.8,3.9-6.9,4.9-11.3,1.3-5.7,0-16-2-21.6-1.8-5.1-5.9-8.7-6.8-13.7h0Z"/>
  <path class="st93" d="M772,414c5.8,10.1-6.4,6.6-12.1,4.4-1.9,4.1,0,6.5,3.1,9.6,2.6,1.5,4.4,1.9,7,3,4.9,2.9,9,7.2,12,12,.3.4.7.6,1,1-2.1-.2-2.2-.1-2,2-6.2-12.3-16.4-7.5-24.3-14.1-6.5-5.4-17-19.6-6.6-26.3,7.6-4.9,16.4,3.9,22,8.5h0Z"/>
  <path class="st66" d="M852,517l-2.7,4.5c-4.6-.2-8.3.9-10.4,5.4l-2.2-.3c0,4.2-4.6,8.5-4.8,3.3,2.5-9,2.3-19.2,6.8-27.7s14.8-10.8,19.7-19.3l-3.2,10.8c-1.3,8.1-1.3,15.2-3.3,23.2h0Z"/>
  <path class="st63" d="M471,766c1.9.2,2.7.6,3,3,.7,6-4,11-4,13.5,0,2,3,3.5,3,4,0,1.2-7.6,4.7-9,5.5-4.1,1.7-7.7,2.4-11,2-4.2,1-4.6-5.2-2.3-8.2-2.2-.9-3.1-2.2-2.7-3.8h1c8.3-1.8,15.1-11.2,22-16h0Z"/>
  <path class="st34" d="M610,202c7.1-9.9,18.2-23.2,32-19.5,4.3,1.1,12.9,8.4,7.6,12.6-3.6,2.9-15.6-3-22-2-3.4.5-11.8,6.4-14.6,8.9l-2.5.8-.5-.8h0Z"/>
  <path class="st162" d="M487,724c-1,5.3-2.4,7.2-6,11-4.7-2.9-10.6-2.7-15-5.5-10.5-6.9,1-14.9,10.4-13.4,4.5.7,7.7,4.9,10.5,7.9h0Z"/>
  <path class="st196" d="M539,735c-1.8-1.4-5.2-2.3-5.9-4.7-.8-3.1,2.9-4.5.9-6.3,6.4-5.2,14.8-8.3,22.7-4.2,15.2,8-13.6,12.5-17.7,15.2Z"/>
  <path class="st150" d="M822,511c.7.5,1.7.1,3,1.5,5.7,5.4,5.3,13.3,5,20.5,1,.3,1.8-2.4,2-3l1.2.8c2-2.5,1.9-11.1,3.8-12.8,3.2-2.9.6,7.1,1.5,8l5.5-9,1.5,4,1.5-5,1,5,4-4c-.6,2.6-4.3,12.1-4,13-.3.9-.6.9-1,0-3,.6-7.2-4.4-5.5-3.9.9.3-.4,3.7-2.5,2.9.6,3.2-.7,7.4-4,8l-4-3c.3,5.8-4.9,3.8-8,7l-1-5-2,5c1.5-2.4-.9-3.9-.9-5.4,0-2.3,2-11,.9-12.6l-5,3c1.3-4-2.4-3.5-2-6.4.6-4.2,1.9-5.9,6-5.6l1,5,1-7,2,16c4.7,4.8,3.7-7.7,0-6-.2-3.6.8-7.7-1-11h0Z"/>
  <path class="st9" d="M351,270c0,.9,1.6,2.5,1,4-8-2.7-13.9-12.2-8.4-19.9s10.1-3.6,14.9,1.9l2.5-4c0,5.7,2.5,11.3,1,17-3.7,1-6.6-5.2-10-2-1.4-.5-1.7.5-1,3h0Z"/>
  <path class="st53" d="M252,586c7.8-.5,7,.8,10.6,5.9,2,2.9,2.2.4,3.4,6.1,0,1-.4,1.7-1,2l-2.3-.3c-.9-5.3-.6,8.4,2.3,6.3,1.2,2.7,2,7.3-1,9-.1.8-.7,2-1,3-.7,2-2.7,2.6-6,2-1.8-1.9-3.4-4.3-5-7-.4-5-4-18.2-6-23l1-3,2.5,2,.5-1,2.4.7c1,4,3.9.3-.3-.4v-2.3h-.1Z"/>
  <path class="st156" d="M244,489c.6-9.9-.2-19.4,2-29l2,1c.2-2.2,1.3-7.4,3-8.4,3.1-2,4.6-6.2,7.5-10.6.8-1.2-.2-2.6,2.5-2-4,12.6-9.3,25.9-11,39l-1.3.5c0,3.1-.9,5-2.7,5.5-.4,1.7-.6,3.3-1,5-.8,1.2-1.1.9-1-1h0Z"/>
  <path class="st99" d="M279,667c-1.7,10.4,2.2,30.3,4.5,41,3.5,17,8.7,33.6,17.3,48.7,2.2,3.9,5.6,7.2,7.2,11.3-.8.9-10-11.5-10.8-12.7-14.8-22.9-19.5-61.4-19.2-88.3h1Z"/>
  <path class="st126" d="M511,161l2-1.5c3.2,9.8-.4,19.5-1,28.9-.5,7.2,1.7,14.4.9,20.9-.1,1-.4,3.8-1.9,3.6,1.8-4.1-1.8-6.2-2-6.7-.9-3.3-1.1-8.5-2-12.3,2.1-6.1-.5-13.2-1-20,.5.2,2.2.4,2-.6.3-3.8-.5-8.2,0-11.9.2-1.6,0-2.1,2-1.5-.6,9.8-.5,19.4,0,29.2,0,.2-.6-3.4,0-3.8-.8-4.4-1-10.5,0-15-.9-2.5.1-6.9,1-9.5h0Z"/>
  <path class="st189" d="M736,319c.8-.9,9.7-10.4,9-5.5-.4,3.1-3.5,4.8-3.8,6.1-.3,1.5,1.4,2.9.3,5.4-2.5,5.6-20.1,13.5-26.5,12l3-3.5-5-.5c2.5-1.4,6.4-1.5,9.7-2.8.4-.2,4.4-2.4,2.3-3.2,1.5-.6,4.2-4.6,4,0,2.4,0,6.2-5.1,7-8h0Z"/>
  <path class="st57" d="M768,594c.1,1,0,2,0,3-1.8,3.9-1.6,10.9,0,12,.6.3,1,1.2,2,1-2.7,2.7-1.7,5-2,8-3,2-5.7,2.7-9.2,1.9-1.9-.5-5.6-7.5-2.8-8.9,3,2,1.6.6,2-1.5,1.1-6,2.7-11.6,4-17.5,4-5.2,6-4.5,6,2Z"/>
  <path class="st135" d="M448,782l6,3c-3.3,3.7-3.6,5.1-1,9,.9.3.9.6,0,1-7.4.7-15.8,4.4-23,.5,1-2.3,3.8-2.7,5-3.5,4.6-1.4,6.6-3.4,6-6-.3,0-.7,0-1,0l-.8-3.5c2.9-.5,5.8-.7,8.8-.5Z"/>
  <path class="st70" d="M742,197l2-.5c-3.4-1.7-4.9-5.4-7-7.5,12.1,7.7,21.7,14.1,36,17.5,4.2,1,8.7.9,12.3,1.7,4.7,1.1,4.8,3.9-.7,3.8-15.6-.2-29.2-8.6-42.5-15Z"/>
  <path class="st165" d="M169,523c.6,1.5,2.4,3.2,3.2,5.3.5,1.4-.4,3-.1,3.5.4.6,4.4,1.1,2.4,3.2-10.5-8.5-24-18-26.5-32l4,1c4.5,4.6,8.2,11,12.5,16,.4.5,3.7,4.7,4.5,3Z"/>
  <path class="st109" d="M541,781c4.8,2,9.5,4,14.4,5.8-1.8-.3-2.2-.9-1.4-1.8.3,0,.7,0,1,0,4.7.5,10.3-.6,15,0,.7,0,2.4,1.7,4,1v1c-1.9-.8-4.6,1-5.5,1h-14.5c.6,1.4,5.1,1.7,6.6,1.9,2.5.3,4.9,0,7.4.1l-7,1c-.2,1.8,2,.7,3,1,9.4,1.4,5.7,6.4-2,6-4.1-.3-8-1.4-12-2l4-1-2-2,4-1c-2.6-.5-8.5-1.3-6-3.9-5.1-1.4-9.5-4.7-12.9-8.6,1-1.4,3.1.8,4,1.5h0Z"/>
  <path class="st140" d="M718,762c-1.4,1.3-1.9.8-1-1,18.2-26.9,24.6-60.5,25-92.5,0-1.4-1-2.9-1-3.5,0-1,1-4.3,1-7,1.7,1,1,3.8,1,5.5.2,17,.2,31.7-3.7,48.3-3.8,16.6-11.2,36.5-21.3,50.2h0Z"/>
  <path class="st198" d="M728,625c1.3,1.4.8,1.9-1,1-1.6-.9-4.6-2.1-6.4-2-8.7.6-6.9,8.7,1.2,9.8,2.7.4,6.4-3.1,6,2.5-.4,5.7-5.7,7.3-10.3,4.7-10.8-6.1-5.6-26.7,10.5-16h0Z"/>
  <path class="st82" d="M294,624c16.8-9.6,18.1,18,5.5,18-5,0-8.2-5.7-5-9.1,1.3-1.4,3.9,0,6.5-.4,8.9-1.7,2.7-11.5-6-7.6-1.7.6-1.9.6-1-1h0Z"/>
  <path class="st154" d="M273,354c.6,2.2.9,7.6-2,8h-1c-1.2,3.5-7.5,4.1-7.6.5-3.3-.7-6.8-.2-10.4.5h-1c-.8,3.2-5.8.5-5.2-.6.5-.9,3.6,1.1-.8.6-.7-1.8-1.5-2.9-2-5,5.6,3.2,3.4.6,5,0,1.8,1.7,9.4-.6,11-3,3.8-5.2,4.4-1.5,6.7-1.2,1.3.2,2.2-1.6,2.8-1.6,1.7-.1,1.2,3.6,4.5,1.8Z"/>
  <path class="st44" d="M693,283c1.6-9.4,2.7-13.2,13-15-1.6,5.8,2.6,10.9,0,17-4.6,1.2-4.7-2.7-7.5-4.9l-4.4,5c-.7.8-1,0-1-2h0Z"/>
  <path class="st133" d="M781,421c2.2-2.5,7.3,4.9,5,7l-2,3c.3-1.8-5.9-9.9-6.5-10-2.6-.6-2.3,3.8-2.5,4-.7.7-11.8-5.9-15-3l3,6c-3.9-2.2-7.8-5.8-4.5-11,2-3.2,15.1,8.7,13.5-3,3,2.5,7.5,6.3,9,7h0Z"/>
  <path class="st195" d="M220,563c1.1.7,2,1.8,3.5,2l.5-1c.2.4,1.2.8,2,3,.8,3.6-.5,6-4.1,4.2l-.9,1.8c.1.3-.1.8,0,1,.7,2.9-1.6,2.6-7-1-2.4-2.8-4.9-5.3-6-9,0-4.4.9-6.3,4.8-3,2.2-5.9,3.3-5.2,5.4.5l1.8,1.5h0Z"/>
  <path class="st18" d="M781,421c-1.3-1.3-1.2-3.5.6-3.9s2.8,3.3,2.4-3.1c4-4,11.6,12.3,10,16-1.9-1.2-.9-3-4.4-1.9-3,.9,1,4.7-1.5,4.9-.3-1.7-1.1-3.5-2-5-.7-1.1-4.6-6.8-5-7h0Z"/>
  <path class="st184" d="M761,586c.3-.3,1.3-.8,2-1.5,1.4-1.5,4.8-8.8,6-5.8.5,1.3-1.1,2.2,1.5,2.3,4.2.2,4-2.5,7.5-3-1.2,2.9-3.3,7-4,10,1.8-3.2-5-.9-5.6,0-1,1.3-.3,4.4-.4,6.1,0-.9-1.9-3.1-1-5l-3,5.5-2-2.5c.2-.9,1-3.8,1-4-2.4-.4-3.1-1-2-2h0Z"/>
  <path class="st190" d="M506,269c-.9-2.6-.8-6.2,0-9,0-14.7,1.2-29.3,1-44,1.9,15.4,1.9,31.7,2,47.5,0,2.8,2.8,8.2-3,5.5Z"/>
  <path class="st163" d="M615,730c7.7,2.1,15.2,16.1,15.1,23.5,0,5.1-3.4,6.2-4.1,2-1.1-6.6,1.2-10.1-5-16-3.5-3.4-9.1-3.1-6-9.5h0Z"/>
  <path class="st69" d="M295,625c-13.1,6-2.4,20.8-4.2,30.3-.4,1.9-4.8,5.3-.8,4.7-1.5,0-2.9,0-4,0,1.4-11.8-4.6-28.8,8-36l1,1Z"/>
  <path class="st110" d="M391,256c.2.2.4,1.6,1,2.3s1.9.8,1.9.9c.4.8-.8,1.8-.7,2.4,0,.7,1.4.4,1.6.7.2.4-.9,1.7-.7,1.8,1.6,1.2,7.8-2.3,9-4v4c6.6-2.1,4.5-.5,6,3-2.8,1-5.3,2.7-8,4-4.1-.2-5.5-.6-7.7-4.7-4.2-.8-5.5-2.1-3.7-3.9-2.5-1-4.6-2.9-1.6-4.4.5-.4.7-1.8,2-2,.3-.9.6-.9,1,0h0Z"/>
  <path class="st160" d="M226,407l1-4,1,3c.3-6.1,10.8,4.1,4.3,5.9-4.2,1.1-12.9-6.3-14.7-10-2.3-4.7-3.1-13.8.9-17.9,1,9.1-4,18.7,7.5,23h0Z"/>
  <path class="st27" d="M673,202c-.3,1.8-2.9,1.7-4.1,3.4-4.3,6.5,5.2,13.2,5,15.1-.3,4.2-11.6-1-10.9-9.9.4-5.6,4-9.7,10-8.6h0Z"/>
  <path class="st161" d="M737,639c-.1,3.8-1.2,7.3-3.1,10.2.7,3.1.7,6,.1,8.8-9,1.2-.5-21.7-1.2-25.3-.4-2.2-3.9-5.7-5.8-6.7l1-1c5.6,3.7,7.6,7.7,9,14Z"/>
  <path class="st106" d="M186,382l-1,8,2,.5c-1.4,1.9-2.5,4.2-4,6-1.4,1.7-5.2,6.3-7,5l2-3.5h-5c3.6-3.7,10.2-11.7,13-16h0Z"/>
  <path class="st178" d="M812,392l3-10,1,5,2-2c-.2,2,4.4,11.5,4,12-2.5,2.7-2.4-5.6-4-5,0,3.6,1.2,7.2,1.8,10.7.3,1.9,0,1.2-1.8,1.3l-3-14c0,5.7-.3,11.4,1,17-3.8-2.2-1.3-8.4-2-12l-2,8v-11h0Z"/>
  <path class="st5" d="M622,244c6.1-3.2,7.8-2.6,5,2-.2.3-.6,2.2-1.9,3.6-3,3-9.1,4.8-9.1,9.4-4.6-8.1-.2-10.5,6-15Z"/>
  <path class="st144" d="M892,536c-2.3,1.9-1.7,3.1-2.3,3.7-.2.2-5,2.3-5.6,3.5-.5.8,1,2.6.9,2.8-.3.4-7.5,4.1-9,5-3.9-.2-5.6-1.2-5-3,.7-.3,1.3-.7,2-1l.3-2.2c2.4,0,4-.9,4.7-2.8,2.6-.6,5.8-.3,8-2.5l-8-1.5,14-2h0Z"/>
  <path class="st151" d="M756,611c1.3,3.8.7,6,5.5,8l1-2c4.4,4.6,1.4-.4,1.5-4l4,5c-.4,3.2-.6,1.2-2.6,2.4-.4.3-.4,1.2-.9,1.3-.6.2-3.4-.8-4-.6-.8.3,0,2.1-1,1.8-5.7-1.9-3.4-3.4-5.1-6.9-1-2-2.8-3.8-3.4-6.1.2-.2,1.6.3,1.9,0,.8-1-.7-4.8.6-5.9,2,1.8,1.7,4.7,2.5,7h0Z"/>
  <path class="st91" d="M801,498l-3-17c1.5-.6,1.1-3,.9-4.3-1.4-11-4.9-21.7-6.9-32.6,1.5.2,2.3,3.5,2.7,4.8,5.2,15.7,6.5,32.9,6.3,49.2h0Z"/>
  <path class="st105" d="M430,786c-1.9-1.8-.8-4.6-1-7h14l-4,2,10,1c-.3,0-.7,0-1,0-2.5.5-5.4.6-8,1l4,1.5-4,1.5c-3.2-.6-6.4-1-9.5-2l-.5,2Z"/>
  <path class="st59" d="M229,364c-.7.8-6.4-3.2-6.8-4.7-.6-1.9-.3-12.5.8-13.3,4-3,5.7,16.6,6,18h0Z"/>
  <path class="st42" d="M807,556c-2.8,8.6-4.7,16.5-10.5,24-1.5-3,2.1-5.6,2.5-8.5.4-4-3-9.1,2.1-12.5,0,.7,0,1.3,0,2,3.1.4,3.4-3.7,6-5Z"/>
  <path class="st176" d="M151,544l8,2c-1.1,2.7-6-.5-8,0l9,7.6-3,3.4c-3.1-1.7-4.6-2.6-8-4-.5-2.4-1.9-4.1-4-5-.8,0-2.4-1.3-3-2,1.4-2.2,5.4-3.9,9-2h0Z"/>
  <path class="st173" d="M252,586c2.5,1.4,7.5,2,5.5,6l-2.5-2c2.2,7.3,1,13.5,1,21-3.3-2.5-1.6-8.4-2.2-12.2s-2.4-7.1-3.7-10.8c-.3-.8-1.4-3.6-1-4,2.1-.8,2.3,1.6,3,2h0Z"/>
  <path class="st146" d="M870,497l-3,12.5-4,7.4,1-7-3,4c-2-2.9,6.5-19.8,9-17h0Z"/>
  <path class="st39" d="M518,272c1.1,1.6,6.4,4.3,7,5.5,2.4,5.5-7.1-1.5-9-.5-.4.6,3.5,12.3,6,13,.3,2-.4,2.4-2,1-.9-1.9-3.7-8.2-4.5-9.1-1.2-1.2-4.6,1.2-4.5-2.9,1.2-.4,2.7-2.6,4.8-7.3l2.2.3Z"/>
  <path class="st129" d="M541,843c1.2-.8,5.9-.6,6.1-1.6.8-4.7-.5-9.5-3.1-13.4,6.2.7,7.8,7.5,7,13,.5,2.8-2.3,5.2-5,6-.7,0-1.3,0-2,0l1-1.9c-1.9,0-2.8-1.3-4-2.1h0Z"/>
  <path class="st55" d="M220,522c.1-5,0-10,0-15,1.9-.3.4,2,1.2,2.9.5.6,2.8,0,2.8.1v14l2-1-1,4c-.5-.2-1.1-.9-1.5-.8-.9.2-1.4,1.8-2.5,1.8-.2-1.7.3-3.7,0-5.4-.1-.8-1-.5-1-.6,0,2,0,4,0,6l-2,2-1-7.5-2,1.5c.7-3.2,1.1-6.8,2-10,2,1,1.3,5.4,2,7.3.3.9,1,.6,1,.7h0Z"/>
  <path class="st148" d="M838,540c1.4-2.1,2.4-4.5,3.1-7.3-.5-5.7,2.3-4.7,5.9-2.7h1c.2.6,2.2.6,1.9,2.3-.5,2.6-2.7,4-3.9,5.7-.4-2-2.5,1-3,1.5s-9,9.2-8,6c1.4-1.6,1.9-3.7,3-5.5h0Z"/>
  <path class="st158" d="M250,479c-.3,2.5,0,6.6,0,7-1.3,8.7-3.2,17.4-5,26,.4-7.2,1.3-14.4,2-21.5.2-1.6.6-4.5-1-5.5.6-2.7,1.1-5.4,2-8h1l1,2Z"/>
  <path class="st152" d="M515,832c-.9-2.2-5.9-13.8-5-15,6.1.6,7,16.2,11.5,5l1.5,5h1v-6h1c.2,1.7.5,3.4,1,5l-2.5,3-.5-2c-3.3,1.2-9.2.5-8,5Z"/>
  <path class="st182" d="M383,235c2.3-2.7,10.8,7.6,10.9,8.8,0,2-.4,4.3-2.9,3.2-5.9-3.6-9.4-7.2-13-13,1.9-1.6,3.4-.4,5,1Z"/>
  <path class="st55" d="M234,515c-.8,5.5-2.1,10.6-3,16-.2,0-1.9-.9-2-1-.1-.3.7-4.8,0-6,.5,0,1.7,1.4,2,1,0-2.5.2-4.9-.1-7.4-.5-4.3-2.4-6.9-3.9-10.6l3,2,.5-3,3.5,9h0Z"/>
  <path class="st145" d="M199,406c0,4.8-1.4,9.2-1,14-2.4-.2.1-5.5-1.5-6-3.4-1.1.7,7.3-3.5,6,.1-6.7.4-13.8,5-19-1,1.6,1,4.6,1,5h0Z"/>
  <path class="st123" d="M622,244c5.7-4.1,8.8-5,14-10.5.2-.3,2.5-5.3,3-2,.7,4.9-.8,5.3-3,8.5.2-3.5-.5-1.6-2-.5-2.6,1.9-4.8,4.2-7,6.5v-3l-5,1h0Z"/>
  <path class="st177" d="M166,432c1.8-2.6.9-6.1,1.3-9.2.1-1,.3-4,1.7-3.8v12s1.5-3,1.5-3l1.5,3,1-7c.1,2.9,1,5.6,1.1,8.5,0,1.9.8,4.1-2.1,3.5-.2-.3-5.1-3.5-6-4h0Z"/>
  <path class="st157" d="M388,258c-.1,5,2,2.2,3,3,.3.3-1.4,2.4-1,3,.2.3,6.8,2,8,2l-2,3,4.5-1,.5,3c-1.4.7-2.5,2.8-5,2l1-2c-4.6.4-3.2-3.2-3.9-3.5-2.7-1.5-8.5-1.1-4.1-5.5-1.8.7-4-1-4-2.5,0-1.1,2.6-1.2,3-1.5h0Z"/>
  <path class="st19" d="M340,813c-3.3-1.4-5.9-1.1-9-4-5.3-4.9-12.7-10.7-19-16l1-1,4,.8c4.1,2.7,21.4,15.2,22.5,18,.3.7.4,1.5.5,2.2h0Z"/>
  <path class="st166" d="M220,563c-.5-.3-1.6,0-2.5-1-1.2-1.3-.8-4-2.5-4l1,7c-1.5-2.2-3.8-1.8-4.8-2.4-.3-.1-1.1-4.9-3.2,1.4-.9-3,0-5.6-1-9,2.8,3.8,6.8,6.3,7,0l2-2c.9,3.2,2.2,7.2,4,10h0Z"/>
  <path class="st120" d="M504,273c-.3,1.7-.9,3.3-1,5l2.5-2c.8,1.4-5,13.5-5.5,14-2.5,2.4-1.1-4.5-4-3,3.7-4,1.7-3,3-6,0-1.6.6-3.6,2-6,.3-.1,1.3-2.5,3-2h0Z"/>
  <path class="st143" d="M871,548c1.8,2,7.5-1.9,5,3-3.9,2.4-6.6,3.2-10,5l-3-3c5.9.6,2.7-.7,3.9-2.5,1.3-1.9,2.5-1.8,4.1-2.5Z"/>
  <path class="st174" d="M857,561l9,2c-5.3.9-9.1,4.1-14,6l-3-3.5c2.3-2.1,5.3-3,8-4.5Z"/>
  <path class="st81" d="M259,780c-2.8-.8-2.8,1-4,2l-16-10c8.5-.9,13.6,5,20,8Z"/>
  <path class="st78" d="M564,792l14,1c-1.2,2.3-5.8,2.5-8,3,.1,1.8,4.7,1,6,1,.9.3.9.6,0,1-4.6-.2-9.4.3-14,0l7-2-10-1,9-1c.2-1-3.1-1.7-4-2h0Z"/>
  <path class="st29" d="M271,373c-1.6-2.9-.5-7.6,0-11,.5-3,.8-5.2,2-8,0,0-.1-1.2,1-1,1.4,7.3.6,13.4-3,20Z"/>
  <path class="st197" d="M794,531c-1.2-1.2-1.4-2.6-4-2l.5-2-6.8,2.2-6.6,6.8c-1.2-8.7,17-17.1,17-5h0Z"/>
  <path class="st96" d="M333,209c.7-7.1,1-9.7,4.5-16,.7-1.2,6.6-10.8,8.5-9-7.5,8.3-11.8,16.4-11,28l-2-3Z"/>
  <path class="st38" d="M602,208c-1.5,3.8-2.8,7.7-3.7,11.8l-1.2,18.2c-2.4-10.4-.9-22.5,4-32,.3.4,0,1.6,1,2h0Z"/>
  <path class="st8" d="M672,253c5.8,3.1,2.8,5.9,4,11-3.8.9-4.1-3.8-7-5.5,3.8-1,1-2,1-3.5,0-.9,1.2-1.8,2-2h0Z"/>
  <path class="st26" d="M243,678c.9,1.5.6,2-1,1-2.4-3.2-14.6-19.6-17-20l1-1c7.4,7.4,10.8,11.6,17,20Z"/>
  <path class="st169" d="M351,270c-4.2-3.5-6.9-7.1-6-13l5.7,5.3c-.2,1.6,1.2,3.8,1.3,4.7,0,.3-1,2-1,3Z"/>
  <path class="st159" d="M737,639c.7,3.3,1.6,6.3,1,10-7-4-.6,8.5-4,9,.6-3.9-1.5-7.5-1-11.4.5-3.5,3.5-4.4,4-7.6Z"/>
  <path class="st17" d="M801,372c-.2-.4-1-.9-1-1-.1-1.6,2.5-9.5,2.9-12.6s0-6.3.1-9.4c4.5,4.2.7,14.3-.5,20.1-.3,1.3-1.4,2.4-1.5,2.9Z"/>
  <path class="st94" d="M576,797c4.5-.2,7.8-1.3,12-2-4,4.8-11,5.6-17,6l-2-1v-1c1.5-.7,5.9,1.2,7-1v-1Z"/>
  <path class="st54" d="M753,343v-1.3c-3.4-1.5-1.9-2.2-1-4.7l1.5,2,9.5-17c-.2,7.9-7.4,14.4-10,21h0Z"/>
  <path class="st92" d="M151,544l-9,2c-.3-.4-1.6-.1-1-2l4-.5c-3-1.6-6.9-4.4-10-5.5,5.7.3,11.5,2.5,16,6h0Z"/>
  <path class="st43" d="M278,635c6.2-1.3,8.5,13.9,2,8,.6,1.7-.8,3-1,4,.4-4.3-.1-7.8-1-12Z"/>
  <path class="st132" d="M782,443c-3.6-3.9-9.9-7.2-12-12,.8.3,2.3,0,3.7.8,3.5,1.6,7.4,7.5,8.3,11.2Z"/>
  <path class="st100" d="M549,765c-1.8-.1-2.2-.8-3-1,1.9.9,4.1-.9,5-1,2.8-.4,4.3.5,7.6-.9s6.5-5.7,7.4-9.1c1.8-.3.9,2.2.5,3-3.1,7-10.4,9.5-17.6,8.9h0Z"/>
  <path class="st21" d="M162,570c-3.2-.4-5.7-2.8-8.8-3.7-5.1-1.5-10.9,0-14.2-3.3,7.4-.2,18.1,1,23,7h0Z"/>
  <path class="st134" d="M694,285c1.1,7.9-.2,12,4,20l-1,1c-4.5-7.8-5.5-14.3-4-23,0,.8,1,1.7,1,2Z"/>
  <path class="st47" d="M268,614c-1.3,2.6-1.5,1.8-4,1,.5-3,.8-6,1-9-2.8-1.1-2.9-5,0-6,0-.8,0-1.7,1-2,1.1,5,.2,12.5,2,16Z"/>
  <path class="st58" d="M517,222c.5,6.6-2.5,14.3-2,22h-1c0-9.4.9-16.9,2-26-.9,1.7,1,3.8,1,4Z"/>
  <path class="st102" d="M587,264c-1.1.5-2,1.3-3,2-6.5-.6-13.2-7.4-16-13-.4-1.4-.3-1.6,1-1,2.6,6.3,10.8,13,18,12Z"/>
  <path class="st121" d="M322,723v3c-.9,3.5-2.2,5.8-4,7-.7-1.7-1.2-3.6-2-5.3-.3-.7-1.9-.8-2-1.2-1-3.7,1.7-2.7,4-1v-2.5c1.2.5,3.1,1.1,4,0h0Z"/>
  <path class="st77" d="M518,272l-1,2.5-1-1.4-3,7c-.3.3-1.3-.8-2-1-.3-.1-.5-1.5-2,0,2.4-5.1,3.7-2.6,4.9-4.5s1.4-5.2,2.1-7.5c.3,1,1.6,4.5,2,5h0Z"/>
  <path class="st79" d="M313,274c2.2-.5,13.9,5.6,14,6.5.1,1.6-2.3,1.3-3.7.7-2.9-1.1-8-4.9-10.3-7.2Z"/>
  <path class="st28" d="M271,425c-.3-1.9-3.1.6-3.5,1-1.2,1.6-1.4,4.2-3.5,5l1-8c.5-.4.8-2.1,2-2l1,3c-.4-2.3,1.9-1.8,2.9-2.6,1.1-.9.6-2.6,2.1-2.4,1,3.1-1.2,4.3-2,6h0Z"/>
  <path class="st7" d="M811,384c-2.3,1.5.3,5.8-2,7,.7-7.1-1.3-14-2-21,1.6.2,2.1,3.7,2.5,5,.8,3,1.1,6,1.5,9h0Z"/>
  <path class="st67" d="M501,275l.9.7c1.7,3.1-2.6,4.7-2.9,5.3-2.6.2-3.7-2-2.9-4.4s3.8-1.2,4.9-1.6Z"/>
  <path class="st125" d="M145,548c0,0-.2-1,.5-1,1.9,0,6.1,3.2,8.5,4.5l-5,1.5c-1.6-.7-5.1-.8-6-2.5l2-2.5h0Z"/>
  <path class="st74" d="M832,383c3.6,2.5,7.7,4.7,12,6l-3.4.9-6.6-1.9c-1-1.4-4-2.4-2-5h0Z"/>
  <path class="st192" d="M522,290c2,.3,3.3,1.9,6,0,1,3.4-4.9,6.3-6.9,4.9-.5-.3-.7-3-1.1-3.9,0-.9,1.3-1.1,2-1h0Z"/>
  <path class="st90" d="M748,327c1.4-1,1.4-4.2,3,1l2-1c-2.5,5.6-2.6,6.4-7,11h-1c-.8-2.1,0-4.3,2.4-6.7-.8-2-.7-3.4.6-4.3Z"/>
  <path class="st16" d="M126,532c2.6,2.3,7.1.3,6,5-2-.5-5.6.4-8-1-.4-1.7,1.5-.6,1.8-1.1.4-.6-1.7-2,.2-2.9h0Z"/>
  <path class="st127" d="M551,847c-.7,2-.5,4.6-2.6,6-.9.2-4-1.6-4.4-2.5-1-2.2,3.9-1.2,4-3.5.9-1.9,2.1-1.9,3,0h0Z"/>
  <path class="st194" d="M554,841c-2.5,1.5-2,3.4-3,6h-3c-.7,0-1.3,0-2,0-.5-1.5,4.3-5.7,5-6,.6-.3,2.2.2,3,0Z"/>
  <path class="st131" d="M870,573c4.9-.9,9.8-2.7,15-2-2.2,3-8.2,2.2-12,3l-3-1Z"/>
  <path class="st109" d="M576,784l-1.5-2c4.5.3,8.1-2,12.5,0,.7,1.7-.8,2.5-1,3,1.3-3.4-7.1-1.5-10-1h0Z"/>
  <path class="st6" d="M195,529c-.4-1.3-2.4-7.7-2-8,.1-.1,3.4-.2,3.8.2.4.3.8,4,2.1,4.8-1.7,0-4.8.9-4,3h0Z"/>
  <path class="st60" d="M846,316l-8,9c-.2-4.4,3.7-8.5,8-9Z"/>
  <path class="st88" d="M250,514l-1-1,7-13c-.1,5.2-4.1,9.8-6,14Z"/>
  <path class="st97" d="M259,355c0,0,1.3.7,0,1.4-1.1.7-6.5,3-7.8,3.4-1.8.5-3.8,1.1-3.3-1.8,3.4-1.3,7.7-1,11-3Z"/>
  <path class="st83" d="M506,174c-2.1-.8-1.9-4.1-2-6,0-.1.9-.7.9-1.5,0-2-1.4-4.3-.9-6.5,3.6,2.5,1.6,9.6,2,14h0Z"/>
  <path class="st115" d="M734,308c1.5-1.8,3.3-7.2,6.5-8,.9,2.6-2.2,6-3.5,8,.3-3.6-.9-1.3-3,0Z"/>
  <path class="st101" d="M464,792c-3.1,1.8-4.6,2.6-8,4-.4-1.2-2-1.1-3-1v-1c3.7.5,8.3-3.9,11-2Z"/>
  <path class="st105" d="M441,786c2.7.4,2.9-.7,4,3l-10,3c2-1.5,6.1-3.9,6-6Z"/>
  <path class="st35" d="M347,215c-4.1.7-7.1-1.8-3.5-5l3.5,5Z"/>
  <path class="st138" d="M393,248l2,3h-3c.7,2.2.7,3.4-1,5,0,0-.7,0-1,0v-1.4c-3.7-1.1-.9-1.9,1-4.1.7-.8.9-2.4,1-2.5.3-.9.6-.9,1,0h0Z"/>
  <path class="st37" d="M807,244c.2,0,1.3,1.1,2,1-3.5,1-9.8,3.9-12,0,3.2,1,7.5-1.1,10-1h0Z"/>
  <path class="st175" d="M285,212l-1-1c1.7-2.9,2.9-7,6-9-.1,3.6-3.8,7.1-5,10Z"/>
  <path class="st64" d="M488,894l7-1c-1,2.9-5.1,2.9-7,4-3.3-1.9-1.8-1.2,0-3Z"/>
  <path class="st57" d="M763,588c-5.1-.7-4.7,5.1-8,7,0-4.4,3.9-6.5,6-9,.5.5,1.9,1.4,2,2Z"/>
  <path class="st155" d="M212,642c1.6,1.6,6.1,3.5,4,6-2-1.8-4.3-3.3-6-5.5l2-.5Z"/>
  <path class="st3" d="M538,830c-2.1,1.6-6.6-.1-8-2,3.7-1.8,5.2.1,8,2Z"/>
  <path class="st95" d="M772,637l-1-1c1.1-2.7,1.1-6.6,4-8,.2,3-2.4,6.6-3,9Z"/>
  <path class="st48" d="M472,764c-.7.4-1.4,1.4-2,2-2.2-.4-4.6,0-7-1-1.5-1.5-.9-2,1-1,2.5-.3,5.5.2,8,0Z"/>
  <path class="st149" d="M766,240l-1,1c-1.2-2.4-4-4.9-4-8,2.6,1.4,3.5,4.8,5,7Z"/>
  <path class="st113" d="M278,304l-1,2c-1-2.8-3-5.8-3-9,2.4,1.3,2.7,4.7,4,7Z"/>
  <path class="st120" d="M506,269c0,.5-.5.9-1,1,.3-2.4-1.2-7.9,1-10,0,2.8.4,6.4,0,9Z"/>
  <path class="st142" d="M284,222c-1.1,2-1.7,5-4,6-.1-2.8,2.3-5.7,3-8l1,2Z"/>
  <path class="st180" d="M558,862c-4.1-.4-6.7-.2-11-1,3.5.5,8.3-1.2,11,1Z"/>
  <path class="st25" d="M784,281c-2.1-.2-2.2-.1-2,2-.7-2.2-2.3-4.3-2-7,1.5.8,2.9,3.5,4,5Z"/>
  <path class="st73" d="M383,235c1.2-.7.4-3.8,2.5-3s8.5,7.3,11.5,8.5c-5.9-.9-2.1,1.3,0,4.5-8.5-2.9-.3,2.3-1,3-1,.1-2.1-.2-3,0-.4,0-.9-.1-1,0-.4-.2-.6-.8-1-1,1.7-1.6,2.5-.2,1.2-2.7-.9-1.7-7.3-7.7-9.2-9.3h0Z"/>
  <path class="st158" d="M245,490c-.4,2-.7,4-1,6h-1c-1.1-2.4.9-5.8,1-7l1,1h0Z"/>
  <path class="st107" d="M854,662c.7,2.4-1.8,2.7-4,3v-3h4Z"/>
  <path class="st2" d="M578,516c-9.1-3.6-22.6-4.8-28.4,5.1-3.8,6.5.5,6,2.6,10.2,5.7,11.4-6.6,27.9-10.2,38.7l-26.9-41.7c4.4-5.8,11.5-9.6,16.4-15.3,23.8-27.7,1.3-68.5-34.2-48.2-18.7,10.7-17.7,33.5-11.1,51.5.9,2.5,6.8,13.3,6.8,14.2s-.4,1.5-.9,2l-12.6,11.4c-9.6-16.4-20.7-31.7-32.5-46.5-18.4-23-76.9-81.2-82.5-104.5-5.6-23.3,15.3-41.9,37-44,48.6-4.8,74.8,33.7,63,79-1.8,6.7-9.2,16.2,3.2,12.2,19.5-6.2,28-32.1,26.3-50.7-1.1-11.5-9.2-21.5-8-33,1.1-10.5,12-15.5,10-26.5h0c-11,.5-20.5-.2-29.5,7-2.2,1.7-7.6,9-9,9-35.5-19.5-85.8-20-114.6,11.5-56.6,61.9,42,139.8,80.5,182.5,4.3,4.8,34.1,38,34.3,40.7-7.9,11.8-22.9,24.1-36.2,29.5-33.4,13.6-85.5,6.7-96-33.4-6.7-25.6,13.4-52.7,39.8-42.8,23.6,8.8,18.2,47.5-9.5,37.5.1,7,10.4,11.9,16.5,12.5,27,2.7,34.3-33.1,21-51.9-19-26.6-59.2-18.9-73.6,8.2-19.6,37,3.5,79.6,41.8,89.6,38.3,10,88.3-.3,111-35,5.4,2.9,9.6,7.2,15.5,9.5,17.7,7,33.3,1.8,48.4-8.4,6.2,7.6,11,14.3,22,12.8,1.1-.1,8.3-2.6,8.6-2.9,1.7-1.8-.6-1.7-1.4-2.1-2.4-1.2-4.2-1.1-6.6-3.4-1.9-1.8-11.1-15.9-10.8-17.8,7.2-10.8,15.9-26.7,15.7-40,0-4.2-4.3-15.2-3.8-16.9,1.3-4.8,17.2-2,17.9-9.7ZM510.7,473.2h0c12.5-2.6,19.7,5.1,19.3,17.3-.4,12.9-8.7,21.6-19.5,27.5-2-.4-10.8-21.5-11.3-24.7-1.2-7.7,3.2-18.3,11.5-20ZM499.5,585c-2.3-2.2-12.5-16.4-13.1-19-.7-3,12-18.1,15.1-21l26.5,40.4c-9.4,6-19.8,7.9-28.5-.4Z"/>
  <path class="st85" d="M456,212.5c0-.7-2.6-4.3,0-4.5,5.7,19.6,5.2,39.3-12.7,51.8-16,11.2-31.4,7.2-36.3-12.3.6-1.1,2.6,1.5,3,2,7.9,8.8,12.1,16.8,26,12.5l-1-1.9c6.6-1.8,14.6-9.9,17.5-16.1.6-1.3,3.5-9.8,3.5-10.5,0-6.9.4-14.2,0-21h0Z"/>
  <path class="st103" d="M184.6,410.4c1.2,1.1,11,14.3,11.1,15.2.4,3.7-2.3,12.7-6.2,14.4,0-3.7,1.1-6,0-10-1.6-5.8-12.9-13.6-10-19.9,1.3-2.8,3.4-1.4,5.2.3h0Z"/>
  <path class="st22" d="M275,325c.6,2.4,3.2,5.2,7.9,8.3v1.7c.1,0,6.1,4,6.1,4l-7.5-2-.5,2c-7-.5-10.8-7.1-13-13-.3-2,2.4-3.9,4-5,.9,1.3,2,2.9,3,4Z"/>
  <path class="st193" d="M251,363c.6.3,1.7,2.8,4,2l-5,1c3.8,2.8.5,7.4,6,7-6.4,5.7-9.2-5.2-11-10l1-2c1.4,1.8,3.9,1.5,5,2Z"/>
  <path class="st153" d="M422,240l-.7-7.5c1.1-4.1-.4-9.9,3.7-12.5,2.7,6.9-.9,13.5-3,20h0Z"/>
  <path class="st193" d="M252,363c.9-1.5,3.1-.6,4.7-1.3.3-.1,1.8-2.6,3.9-2.6.4,0,.1,3.6,5.4,0l-2,5c2.4.4,4.2-.5,6-2-.9,5.4-3.3,3.1-6.4,3.1-1.1,0-2.2.9-3,.9s-4.6-4.5-8.6-3h0Z"/>
  <path class="st50" d="M275,325c3.5,3.8,9,8.6,14,10h-6c-2.4-2.1-4.8-4.2-7-6.5-.8-.8-3.4-2.7-1-3.5h0Z"/>
  <path class="st23" d="M272,321v4l-4,1c-.9-2.3-2.3-4.4-2-7l3,2,.5-4c1.5.9,1.7,2.8,2.5,4h0Z"/>
  <path class="st187" d="M148,449l4-15c0,4.5-.9,11.4-4,15Z"/>
  <path class="st2" d="M683.7,471.8c-1.5-.7-5.7-.8-3.1-2.9s7.3-4.1,10.3-6.5c41.7-33.2,31.7-90.9-19.9-105.9-24-7-48.1-4.7-72.5-4.5-15.2.2-30.4-.2-45.5,0v5h0s18.5,0,18.5,0c.3,0,5.4,2.3,6.2,2.8,5.6,3.5,7.3,9.5,8.3,15.7v223c-1.9,21-15.2,20.8-33,20.5-.5,2.8.6,4.1,3.4,4,31.5-1.6,64.7,1.9,96,0,93.3-5.9,114.1-111.3,31.2-151.2ZM619,369h24.5c2,0,13.6,4.7,15.8,6.2,30.8,20.5,16.8,91.8-21.8,91.8h-18.5v-98ZM653.2,605.7c-8.4,1.6-24.4,3-30.8-3.7-.7-.7-3.5-5.2-3.5-5.5v-113.5h0c24-3.8,48.4,2,64,21.5,25.1,31.5,13.6,93-29.8,101.2Z"/>
  <path class="st171" d="M833.1,406l1.9-1,2.1,7,1.9-1,3,11,1.5-2,1.5,4h1l1-3,1,14c-1.5-.2-2.2-3.4-2.8-4.7-.7-1.7-1.2-3.4-1.2-5.3l-1,5c-1.2,1.7-4.3-12.4-4-14l-1,9c-3-7.7-4.4-16.7-9-23.5.4-4,4.7,4,4.1,4.5h0Z"/>
  <path class="st72" d="M569,204c-2.3,10.5-3.9,38.6,0,48l-1,1c-6.6-13.3-4.7-37.1,0-51,.9-.9,1.2-.2,1,2Z"/>
  <path class="st185" d="M748,327l2,4.4c-1.8,1.8-3.2,5-5,6.6-1.5,1.4-3.9,2.7-6,3l-.7-1.5c-4.2-.4-3-2.9,3.7-7.5-1-1.6,1.3-3.9,3-4,1-.2,2.1-.4,3-1Z"/>
  <path class="st90" d="M742,332c-1.9,2.3-3.8,4.5-6,6.5l7-2.5c.2.2-3.6,4.6-4,5-1.2,1-2.1,2.4-4,2l3-3h-6s1-2,1-2l-5,1c.3-1.3,3.8-2.6,5-3,2.8-.6,5.4-2.3,7.9-4.9l1.1.9h0Z"/>
  <path class="st179" d="M575,220.5c.3-2.1,2.5-7.3,3.5-9.6.3-.7.5-3,1.5-1.4l-2.7,10.3-2.3,17.2c.5-5.2-.7-11.5,0-16.5Z"/>
  <path class="st45" d="M745,328c-1.2,2-1.7,2.4-3,4-3.2.3-4.3,3.7-7,4.6-1.3.4-1.9-.6-2-.6,5.3-3,9.1-7.9,13.5-12,1.5,1.1-.9,3-1.5,4Z"/>
  <path class="st65" d="M736,319c2.2,1.1-1.7,5.1-2.5,6-1.4,1.6-4.9,5.9-6.5,4.5.9-.6,1.3-1.8,2-2.5,2.4-2.6,4.6-5.4,7-8Z"/>
  <path class="st76" d="M852,432c-2.6.4-1.8-.4-2.3-2.2-.8-3-.9-5.8-.7-8.8l3,11h0Z"/>
  <path class="st62" d="M615,268c-.8.9-10-7.3-5.5-7,.4,0,6.5,6,5.5,7Z"/>
  <path class="st136" d="M569,204l-1-2c.8-2.4,2-6.5,4-8,.3,3.4-2.4,7.1-3,10Z"/>
  <path class="st14" d="M613,827c-8.8-1.5-19.6-3.9-28.2-6.3-4.6-1.3-9.3-3.1-13.8-4.7-.5-.2-4.1-1.1-2.5-2,4.2,1.3,8.2,1.6,12.5,2,8.7.8,17.7.2,26.5,1,4.2.4,8.4,2.5,12.1,2.9,17.2,2.1,65.2-19.4,79.3-30.5,9-7.1,16.5-17.8,24.1-26.4-8.3,20.1-24.8,39.2-44.1,49.4-16.4,8.6-47.7,17.7-65.9,14.6h0Z"/>
  <path class="st51" d="M625,810l19.5-5c21.2-8.6,40.3-23,55.5-40-4.6,12.3-15.3,21.4-25.7,28.8-14,10-31.8,18.7-49.3,16.2h0Z"/>
  <path class="st122" d="M848,558c-8.3,10-24.1,15.1-33,23.5-7.4,6.8-12.8,19.6-19.7,27.3-1,1.1-1.1,2.8-3.2,2.3,13.3-22.1,30.1-45.1,56-53h0Z"/>
  <path class="st75" d="M776,640c-1.8.3-1-2.3-.8-3.3,4.1-15.3,13.2-32,23.8-43.7-3.7,9.2-10.7,16.7-14.8,25.6-3.2,6.8-5,14.5-8.2,21.3h0Z"/>
  <path class="st11" d="M823,522l2-6c2.8,6.5,5.2,14.3-.5,20l.5-6-3,4c0-2.1.8-3.9,1-6,.2-1.9-.2-4.1,0-6Z"/>
  <path class="st168" d="M839,529c.6-1.2.9-3.8,1-4,.1-.1,3.8-.2,3.9,0,.4.8-.6,2.9.5,3l2.5-3c-1,1.6,0,4.7,0,5-.5,2.4-1.9,4.2-3.5,6-1.1,0,3.5-9.4-.5-5.5-1.4,1.3-1.2,4.8-2.2,6.8-.8,1.8-2.5,2.2-2.8,2.7l-1-1-.6-1.4c1.7-2.8,2.8-5.2,2.6-8.6h0Z"/>
  <path class="st15" d="M725,726c-.9,5.4-2.8,13.4-5.2,18.3-.6,1.2-1.7,3.2-1.8.2,2.3-6.3,4.5-12.7,5.8-19.2.7-3.8-.6-7.7,1.3-11.2,4.4-.3,2,9.2,0,12h0Z"/>
  <path class="st86" d="M788,633c-6.1,9.2-11.3,19.1-18,28,4.1-10.1,10.7-20,17-29,1.4-1.3,1.9-.8,1,1Z"/>
  <path class="st52" d="M729,712c.2-2-.8-5.1,2-6,.3,7.4-.5,15.8-4.5,22l-.5-2c.8-4.5,1.3-9,1.8-13.4l1.2-.6Z"/>
  <path class="st143" d="M878,542c2.9,4.3-2.4,3.9-5,5,2.2-5.8-5.3-.5-6.6,0-1.8.7-1.9-1.5-1.4-1.9,1.2-1.2,10.6-2.5,13-3h0Z"/>
  <path class="st111" d="M837,539c-1.1,1.5-2.1,3.3-4,4,0-2.1,1.2-4.1,2-6,1.2-2.6,2.8-5.3,4-8,3,3.9.3,6.9-2,10Z"/>
  <path class="st170" d="M729,712c-.5,4.7-.4,9.8-3,14h-1c.6-3.6,2.4-8.6,0-12,1.1-2.2,2-1.3,4-2Z"/>
  <path class="st1" d="M768,597c.2,4-.2,8,0,12-.3-.2-1.5.3-1.8-.1s-.5-11.4-.2-11.9c.1-.2,1.4,0,2,0h0Z"/>
  <path class="st20" d="M716.8,728.8c-.2.3-4,3.7-4.7,5.2.3-4.5.2-8.4,5-10-.2,1.5.5,3.5-.2,4.8Z"/>
  <path class="st41" d="M799,580c2-4.4,4.3-9.8,8-13-1.3,4.5-4.3,10.1-8,13Z"/>
  <path class="st31" d="M788,633l-1-1c2.4-3.4,4.6-7.5,8-10-1.1,4.1-4.7,7.6-7,11Z"/>
  <path class="st191" d="M718,762c-2.2,3.1-4.9,6.8-8,9,1-3.9,4.9-6.8,7-10l1,1Z"/>
  <path class="st118" d="M420,822c-3,.7-5.8,2.2-9,3-14,0-28.2.6-42-2-9.8-1.8-19.9-6.2-29-10-8.5-7.7-18.3-13.4-27-21-16-14-23.7-26.7-32.9-45.6-1.3-2.8-7.3-18.8-8.1-19.4-.2-.1-2.5,1.4-3,1-.3-.2-1.5-5.8-2-7,0-2.5-.7-4.9-2-7.2l1-.8c-1.6-9.3-4.6-30.1-4-39-.3-1.9,0-2.5,1-2,7.6,30.9,8.7,59.6,28.2,86.3,1.9,2.6,18.9,22,20.3,22.7,2.4,1.4,4.5.6,6.6,1.4,7,2.7,11.8,9.2,17.5,13.5,15.3,11.5,35.6,20.6,55,22,8.5.6,20.3-1.3,28,0,2.6.5,3.1,1.8,1.5,4Z"/>
  <path class="st71" d="M387.5,811c-16.9-1.7-34.6-11.9-47.5-22.5-8.6-7-18.2-15.9-22-26.5,19.7,19,40.9,38.3,68.2,45.3l17.8,3.7c-5.3-.4-11.3.5-16.5,0h0Z"/>
  <path class="st183" d="M214,598c2.9.7,11.1,12.3,5,11-.7-.4-2.7-2.3-3-2l-.5,2-20.5-22.5c1.2.2,2-2.3,2.1-2.3,2.7-1.1,13.7,12,16.9,13.8h0Z"/>
  <path class="st114" d="M293,706c0-.3,1.1-5.2,3-4l.5,9,1.5-5c.9,6.4,1.1,12.8,2.3,19.2.9,4.8,3,9.1,3.7,13.3.1.8.3,3.7-1,2l-4.5-17.5-1.5-1-1,6c-1.8-.3-1.6-1.8-2-3-.6-6-1.4-11.9-2.4-17.9l1.4-1.1h0Z"/>
  <path class="st84" d="M178,557l.5-2c5.6,3.7,12.4,6.6,16.5,12-4.7,1.3-6.8-1.8-10.3-3.2-3.9-1.5-13.5-4.2-16.1-6-1.2-.8-2-1.2-1.6-2.8,4-.7,7.3,1.2,11,2Z"/>
  <path class="st80" d="M255,658c.5,1.3.5,2.4-1,2-3.1-12.3-7.4-24.5-10-37l3.7,7.8c3.6,9,5.6,17.7,7.2,27.2h0Z"/>
  <path class="st87" d="M256,694c1.1,2.2,3.4,6.4,3,2,1.9,5.9,4,11.8,5.9,17.6l1.1-.6c.4,2.2,3,4.8,1,8-7.3-16.9-13.8-27.5-25-42l1-1c3.5,4.7,6.8,9.5,10.2,14.3.3.5,2.3,3.8,2.8,1.7Z"/>
  <path class="st108" d="M221,574c.9,1.6,1.3,4.1,2.4,5.1s3.2-.5,3.5-.2c.3.3,1.6,7.1.5,8-4.3-5.1-9.2-8.8-13.5-14,3.1-3.1,5,3.9,7,1h0Z"/>
  <path class="st130" d="M214,598c-.8-1.4-.9-3.4-3-4.5-.3-2.8,1.2-.8,2,0,1.9,2,11.2,14.1,12,16,1.4,3.8-5.2,0-6-.5l.9-.6c-1.1-4-3.9-6.8-5.9-10.4h0Z"/>
  <path class="st119" d="M293,706c-.3,5.8,3.6,13.5,1,19-2.1-6.1-3.8-13.6-4-20,1.5,0,1.4,4.4,2,.5l1,.5Z"/>
  <path class="st61" d="M242,625c-2.7-3.5-5-8.6-6.9-12.6-1.5-3.3-3-6.9-4.1-10.4,5.4,5.8,9.3,15.4,11,23h0Z"/>
  <path class="st47" d="M257,620c4.5-3.4-1.6-10.1,0-15l3.7,10.7c.6,2.2-3.1,4.4,2.3,2.3-.4,1.6-.4,3.4-1,5l-2.5-3c-1,3.1-2.2,3.4-2.5,0-.6.4-2.4-.2-2.5,2-5.5-3.3-2.3-5.8-2.5-9l3-1,.5,4,1.5-3c.2,2.3-.2,4.7,0,7Z"/>
  <path class="st108" d="M221,573c-.9-1.7-4.4-1.7-2-7l5.5,5,1.5-4c.6,1.6,1.7,2.8.9,4.9l-5.9,1.1Z"/>
  <path class="st32" d="M322,726c0,3.9-.9,7.2-1,11-2.9.7-2.2-2.2-3-4,1.4-3.3.7-4.8,4-7Z"/>
  <path class="st128" d="M449,808c1.8-.4,2.4,0,2,1-4.3,1.4-6.4,2.2-11,3-1.8.3-3.7,1.7-6,1v-1c1.7.5,2.9-.7,4-1,3.7-1,7.2-1.5,11-3Z"/>
  <path class="st36" d="M242,644c-.2-.3-1.6-.7-1.9-1.6l-7.1-13.4c5.1,3.5,6.6,9.9,9,15Z"/>
  <path class="st30" d="M210,607v1c-2.6-3.2-7.8-6-10-10,4.2,1,7.1,6.1,10,9Z"/>
  <path class="st0" d="M242,644c.1.2,1.3.6,1.9,1.6,3,5,5.8,12,8.1,17.4-3.2-4.2-7-10.5-9.2-15.3-.7-1.4-.5-3.1-.8-3.7Z"/>
  <path class="st181" d="M255,658c0,.2.8.7.9,1.5.6,3.7.4,8.5,1,12.5-1.4.3-1.3-1.9-1.5-3-.6-3-.7-5.9-1.5-9l1-2h0Z"/>
  <path class="st89" d="M263,672c-1,.3-.9,1.2-1,2l-2-11,3,9Z"/>
  <path class="st4" d="M451,809l-2-1c13.5-5.2,25.9-13.8,35-25-4.6,14.8-19.5,21.5-33,26Z"/>
  <path class="st162" d="M422,829c-2.2,3.6-8.1,3.9-12,4-.2-1.4,1.8-1.4,2.8-1.7,3-.8,6.2-1.3,9.2-2.3h0Z"/>
  <path class="st10" d="M511,161c.8,3.6-1,7.3-1,9.5v15c0,1,3.2,5.1-1,4.5.5-9.9-1.1-20.2,1-30,.7.2.8,0,1,1Z"/>
  <path class="st116" d="M221,636l-24-24.5-20-13.5c15.6,4.2,27.7,17.8,38,29.5,2,2.3,5.1,5.7,6,8.5h0Z"/>
  <path class="st98" d="M406,771c-1.5-4.1,2.5-4,4,0,3.1.7,3.6,1,0,2.5l4,4.5c-7.3,1.2-5.9-1.4-8-7Z"/>
  <path class="st40" d="M406,771c-.2-.6-1.8-1.4-.9-2.9,2.3-1.2,3.6-1.9,6.3-2.2,1.8-.2,6.6-.9,5.6,2.1-.8.7-10.1-.4-7,3-.6-.1-1.6.3-2.3,0-.7-.2-1.5-4.7-1.7,0Z"/>
  <path class="st167" d="M464,764c-.5,0-.9.5-1,1-3.3-1.5-8.1-8.2-8-12l5,7.5,4,3.5Z"/>
  <path class="st104" d="M506,923c.2-1.4,1.3-6.4,3-7v6s2-4,2-4l2,9,.5-9c5.2,6.8.6,13,.5,20l-1-4-2.5,3-1-3-1.5,4-2-6c-1.3-2-1-6.7,0-9h0Z"/>
  <path class="st49" d="M506,923c-.4,2.8.4,6.2,0,9,0,.5-.9,3.3-2,3l.9-12.6,1,.6h0Z"/>
  <path class="st66" d="M554,785l2,2c-6.2.6-10.5-2.7-15-6,3.8-1.4,9,3.4,13,4Z"/>
  <path class="st46" d="M265,600c-.1,2,.1,4,0,6l-3,8c.2-8-2.8-16.3-2.5-24,3.5,2.7,4,6.2,5.5,10h0Z"/>
</svg>